<svg width="179" height="56" viewBox="0 0 179 56" fill="none" xmlns="http://www.w3.org/2000/svg">
<path d="M94.3387 14.0708C94.3387 16.089 92.7164 17.7141 90.7031 17.7141C88.6898 17.7141 87.0686 16.089 87.0686 14.0708C87.0686 12.0526 88.6345 10.4276 90.7031 10.4276C92.7734 10.4836 94.3387 12.1092 94.3387 14.0708ZM79.3517 21.4145V22.3116C79.3517 22.3116 77.6188 20.0683 73.9279 20.0683C67.8333 20.0683 63.0793 24.7213 63.0793 31.1673C63.0793 37.5579 67.7774 42.2663 73.9279 42.2663C77.6747 42.2663 79.3517 39.9681 79.3517 39.9681V40.9206C79.3517 41.3692 79.688 41.7046 80.1349 41.7046H84.6637V20.6272H80.1349C79.688 20.6289 79.3517 21.022 79.3517 21.4145ZM79.3517 34.9231C78.5138 36.1568 76.8356 37.2219 74.8229 37.2219C71.2443 37.2219 68.5036 34.9797 68.5036 31.1673C68.5036 27.3555 71.2443 25.1133 74.8229 25.1133C76.7803 25.1133 78.5696 26.2344 79.3517 27.4115V34.9231ZM88.0195 20.6289H93.3873V41.7063H88.0195V20.6289ZM168.208 20.0678C164.517 20.0678 162.783 22.3111 162.783 22.3111V10.4836H157.416V41.7063H161.946C162.393 41.7063 162.728 41.3137 162.728 40.9212V39.9687C162.728 39.9687 164.462 42.2668 168.151 42.2668C174.247 42.2668 179 37.5596 179 31.169C179 24.7784 174.247 20.0678 168.208 20.0678ZM167.313 37.1653C165.244 37.1653 163.623 36.1014 162.783 34.8671V27.3555C163.623 26.2344 165.412 25.0573 167.313 25.0573C170.892 25.0573 173.632 27.2995 173.632 31.1113C173.632 34.9231 170.893 37.1653 167.313 37.1653ZM154.62 29.2062V41.7623H149.251V29.8222C149.251 26.3475 148.133 24.9453 145.115 24.9453C143.494 24.9453 141.816 25.7864 140.752 27.02V41.7069H135.385V20.6294H139.633C140.081 20.6294 140.416 21.022 140.416 21.4145V22.3116C141.982 20.6854 144.051 20.0683 146.119 20.0683C148.468 20.0683 150.426 20.742 151.992 22.0871C153.892 23.6567 154.62 25.6744 154.62 29.2062ZM122.354 20.0678C118.664 20.0678 116.93 22.3111 116.93 22.3111V10.4836H111.562V41.7063H116.091C116.538 41.7063 116.874 41.3137 116.874 40.9212V39.9687C116.874 39.9687 118.608 42.2668 122.298 42.2668C128.393 42.2668 133.146 37.5596 133.146 31.169C133.202 24.7778 128.449 20.0678 122.354 20.0678ZM121.459 37.1653C119.39 37.1653 117.769 36.1014 116.93 34.8671V27.3555C117.769 26.2344 119.558 25.0573 121.459 25.0573C125.038 25.0573 127.778 27.2995 127.778 31.1113C127.778 34.9231 125.038 37.1653 121.459 37.1653ZM106.92 20.0678C108.541 20.0678 109.38 20.3489 109.38 20.3489V25.3373C109.38 25.3373 104.907 23.8236 102.112 27.0195V41.7617H96.7425V20.6289H101.272C101.72 20.6289 102.055 21.0214 102.055 21.414V22.3111C103.062 21.1334 105.243 20.0678 106.92 20.0678ZM51.1692 39.8001C50.8899 39.1275 50.6101 38.399 50.3308 37.7819C49.8827 36.7734 49.4353 35.8197 49.0448 34.9231L48.9889 34.8671C45.1299 26.4584 40.9926 17.9387 36.6303 9.53102L36.4627 9.19389C36.0039 8.3217 35.5567 7.44338 35.1214 6.55915C34.5617 5.5495 34.003 4.48551 33.1081 3.47585C31.3188 1.23366 28.7463 0 26.0068 0C23.2103 0 20.6942 1.23366 18.8496 3.3633C18.0105 4.37184 17.3949 5.43694 16.8363 6.4466C16.3998 7.33027 15.9527 8.20858 15.495 9.08134L15.3268 9.41845C11.0209 17.8261 6.82725 26.3464 2.96877 34.7546L2.91236 34.866C2.52132 35.7643 2.07329 36.7168 1.62582 37.7248C1.34651 38.3419 1.06719 39.0144 0.787875 39.743C0.0605358 41.8166 -0.163487 43.7788 0.116947 45.7976C0.732001 50.002 3.5274 53.5321 7.38643 55.1029C8.84055 55.72 10.3505 56 11.9158 56C12.3633 56 12.9219 55.944 13.37 55.8875C15.2157 55.6635 17.1167 55.0474 18.9624 53.9823C21.255 52.6927 23.4359 50.8436 25.8962 48.1529C28.3564 50.8436 30.5932 52.6927 32.8299 53.9823C34.6762 55.0474 36.5766 55.6635 38.4218 55.8875C38.8693 55.9446 39.429 56 39.8765 56C41.4423 56 43.0076 55.72 44.4053 55.1029C48.3202 53.5321 51.0598 49.946 51.6754 45.7976C52.1195 43.8359 51.896 41.8749 51.1692 39.8001ZM25.9504 42.7148C22.9304 38.903 20.9729 35.3157 20.3026 32.2895C20.0233 30.9999 19.9668 29.8788 20.135 28.8697C20.2462 27.9726 20.5824 27.1875 21.0299 26.5149C22.0924 25.0024 23.8817 24.0487 25.9509 24.0487C28.0207 24.0487 29.8658 24.9458 30.8725 26.5149C31.3199 27.1875 31.6551 27.9731 31.768 28.8697C31.935 29.8793 31.8791 31.0559 31.5998 32.2895C30.9267 35.2597 28.9692 38.8475 25.9504 42.7148ZM48.261 45.3496C47.87 48.2643 45.9125 50.7876 43.173 51.9087C41.8312 52.4687 40.3765 52.6373 38.9235 52.4687C37.5258 52.3001 36.127 51.8516 34.674 51.0116C32.6606 49.8894 30.6479 48.1529 28.2989 45.5736C31.9892 41.0337 34.2259 36.8848 35.065 33.1861C35.4566 31.4479 35.513 29.8788 35.3443 28.4206C35.1214 27.0195 34.6175 25.7298 33.8349 24.6087C32.1003 22.0854 29.1921 20.6289 25.9498 20.6289C22.7075 20.6289 19.7992 22.1425 18.0658 24.6087C17.2832 25.7298 16.7793 27.0195 16.5558 28.4206C16.3324 29.8788 16.3877 31.5039 16.8351 33.1861C17.6736 36.8848 19.9663 41.0892 23.6008 45.6296C21.3081 48.2083 19.2389 49.9465 17.2256 51.0676C15.7715 51.9087 14.3744 52.3573 12.9767 52.5247C11.4673 52.6933 10.0126 52.4687 8.7266 51.9647C5.98707 50.8436 4.02962 48.3203 3.63857 45.4056C3.47098 44.0045 3.58215 42.6034 4.1419 41.0337C4.30893 40.4726 4.58937 39.9127 4.86868 39.2401C5.26028 38.343 5.70663 37.3893 6.15465 36.4368L6.21108 36.3254C10.069 27.9726 14.2068 19.4523 18.5127 11.1567L18.6803 10.8196C19.1283 9.97957 19.5758 9.08246 20.0227 8.24136C20.4702 7.34426 20.9729 6.50315 21.5885 5.77405C22.7628 4.43007 24.3281 3.70041 26.0621 3.70041C27.7961 3.70041 29.3614 4.43007 30.5356 5.77405C31.1512 6.50483 31.654 7.34594 32.1015 8.24136C32.5495 9.08246 32.9969 9.97957 33.4433 10.8196L33.6114 11.1567C37.8517 19.4868 41.9346 27.8965 45.8578 36.3814V36.4374C46.3058 37.3356 46.6968 38.3436 47.1443 39.2418C47.4236 39.9132 47.7035 40.4732 47.8711 41.0343C48.3174 42.4903 48.485 43.8925 48.261 45.3496Z" fill="#C6C6C6"/>
</svg>
