<svg width="179" height="56" viewBox="0 0 179 56" fill="none" xmlns="http://www.w3.org/2000/svg">
<path fill-rule="evenodd" clip-rule="evenodd" d="M97.1775 16.9395H108.694C107.886 2.17769 97.5818 -0.28288 92.5311 0.0241094C87.4803 0.332649 78.3891 1.56216 77.7831 16.017C77.3798 25.5492 82.2279 28.6268 86.47 31.7013C88.4907 33.2394 91.7234 35.393 93.1381 36.0069C97.7845 39.083 95.5611 43.6956 91.9251 43.6956C88.0873 44.0042 85.865 40.6195 85.865 38.1605H74.5494C74.751 53.5379 85.2569 56 91.7224 56C98.3885 56 107.682 51.6944 107.278 38.1605C107.075 28.3183 101.217 25.2437 97.3771 22.4746C93.3367 19.7071 88.892 19.0915 89.0946 15.0929C89.2983 10.7873 96.9748 10.7873 97.1775 16.9395ZM27.4762 1.56216L25.8598 19.7071H14.7479L16.567 1.56216H4.8491L0 54.1519H11.5162L13.3343 34.4689H24.4461L22.4254 54.1519H34.346L39.3967 1.56216H27.4762ZM41.8208 1.56216H53.7403C53.7403 1.56216 51.1136 28.9338 50.7093 34.4689C50.1033 40.004 52.124 43.3871 55.5584 43.3871C58.9928 43.6956 61.4168 39.6986 61.8211 34.4689C62.6288 26.7818 65.0539 1.56216 65.0539 1.56216H76.9744C76.9744 1.56216 74.9548 22.4746 73.9434 34.4689C72.934 44.9251 70.7106 55.6915 55.76 56C39.193 56 38.3854 38.776 38.7897 34.1635C39.1941 30.7804 41.8208 1.56216 41.8208 1.56216ZM179 1.56216H165.666L158.394 19.7071L153.746 1.56216H134.554L122.634 18.7845L124.249 1.56216H112.733L107.886 54.1519H119.199L120.411 40.3125L124.654 35.0829L130.715 54.1519H144.252L132.936 23.3971L143.241 8.63531L151.725 34.4689L149.706 54.1519H161.625L163.241 35.7015L179 1.56216Z" fill="#C6C6C6"/>
</svg>
