<svg width="22" height="16" viewBox="0 0 22 16" fill="none" xmlns="http://www.w3.org/2000/svg">
<path d="M20.2667 0.00702266C20.1759 -0.00234089 20.0843 -0.00234089 19.9934 0.00702266H1.32672C1.20708 0.00886609 1.08824 0.0268049 0.973389 0.0603559L10.6067 9.65369L20.2667 0.00702266Z" fill="white"/>
<path d="M21.2533 0.933594L11.5467 10.6003C11.2969 10.8486 10.9589 10.988 10.6067 10.988C10.2544 10.988 9.91648 10.8486 9.66667 10.6003L0.0466667 1.00693C0.017093 1.11562 0.00141246 1.22762 0 1.34026V14.6736C0 15.0272 0.140476 15.3664 0.390524 15.6164C0.640573 15.8665 0.979711 16.0069 1.33333 16.0069H20C20.3536 16.0069 20.6928 15.8665 20.9428 15.6164C21.1929 15.3664 21.3333 15.0272 21.3333 14.6736V1.34026C21.328 1.20136 21.301 1.06415 21.2533 0.933594ZM2.24667 14.6736H1.32V13.7203L6.16667 8.91359L7.10667 9.85359L2.24667 14.6736ZM19.9867 14.6736H19.0533L14.1933 9.85359L15.1333 8.91359L19.98 13.7203L19.9867 14.6736Z" fill="white"/>
</svg>
