<svg width="15" height="24" viewBox="0 0 15 24" fill="none" xmlns="http://www.w3.org/2000/svg">
<path d="M0 3.00684C0 2.21119 0.31607 1.44812 0.87868 0.885516C1.44129 0.322906 2.20435 0.00683594 3 0.00683594L12 0.00683594C12.7956 0.00683594 13.5587 0.322906 14.1213 0.885516C14.6839 1.44812 15 2.21119 15 3.00684V21.0068C15 21.8025 14.6839 22.5655 14.1213 23.1282C13.5587 23.6908 12.7956 24.0068 12 24.0068H3C2.20435 24.0068 1.44129 23.6908 0.87868 23.1282C0.31607 22.5655 0 21.8025 0 21.0068V3.00684ZM9 19.5068C9 19.109 8.84196 18.7275 8.56066 18.4462C8.27936 18.1649 7.89782 18.0068 7.5 18.0068C7.10218 18.0068 6.72064 18.1649 6.43934 18.4462C6.15804 18.7275 6 19.109 6 19.5068C6 19.9047 6.15804 20.2862 6.43934 20.5675C6.72064 20.8488 7.10218 21.0068 7.5 21.0068C7.89782 21.0068 8.27936 20.8488 8.56066 20.5675C8.84196 20.2862 9 19.9047 9 19.5068Z" fill="white"/>
</svg>
