<svg width="289" height="213" viewBox="0 0 289 213" fill="none" xmlns="http://www.w3.org/2000/svg">
<path d="M259.902 198.431H240.769V198.575H259.902V198.431Z" fill="#EBEBEB"/>
<path d="M191.342 200.002H186.322V200.146H191.342V200.002Z" fill="#EBEBEB"/>
<path d="M240.192 193.07H229.106V193.214H240.192V193.07Z" fill="#EBEBEB"/>
<path d="M55.2561 194.04H30.3057V194.184H55.2561V194.04Z" fill="#EBEBEB"/>
<path d="M64.06 194.04H60.4032V194.184H64.06V194.04Z" fill="#EBEBEB"/>
<path d="M130.067 196.478H75.9489V196.622H130.067V196.478Z" fill="#EBEBEB"/>
<path d="M136.913 163.371H25.3722C24.4974 163.371 23.6584 163.023 23.0397 162.404C22.4211 161.786 22.0736 160.947 22.0736 160.072V3.26972C22.0812 2.39989 22.4321 1.56828 23.0499 0.955905C23.6677 0.34353 24.5024 -3.33477e-05 25.3722 2.42777e-09H136.913C137.787 2.42778e-09 138.626 0.347531 139.245 0.966139C139.864 1.58475 140.211 2.42376 140.211 3.29861V160.072C140.211 160.947 139.864 161.786 139.245 162.404C138.626 163.023 137.787 163.371 136.913 163.371ZM25.3722 0.115538C24.5361 0.117065 23.7348 0.44987 23.1436 1.04106C22.5524 1.63226 22.2196 2.43365 22.218 3.26972V160.072C22.2196 160.908 22.5524 161.709 23.1436 162.301C23.7348 162.892 24.5361 163.225 25.3722 163.226H136.913C137.749 163.225 138.55 162.892 139.141 162.301C139.732 161.709 140.065 160.908 140.067 160.072V3.26972C140.065 2.43365 139.732 1.63226 139.141 1.04106C138.55 0.44987 137.749 0.117065 136.913 0.115538H25.3722Z" fill="#EBEBEB"/>
<path d="M261.872 163.371H150.321C149.446 163.369 148.608 163.021 147.99 162.403C147.372 161.784 147.023 160.946 147.022 160.072V3.26972C147.031 2.40036 147.382 1.56963 148 0.957574C148.617 0.345521 149.451 0.00147212 150.321 0H261.872C262.74 0.00300658 263.572 0.347913 264.187 0.959962C264.803 1.57201 265.152 2.40189 265.159 3.26972V160.072C265.159 160.945 264.814 161.782 264.197 162.4C263.581 163.019 262.745 163.367 261.872 163.371ZM150.321 0.115538C149.485 0.117065 148.683 0.44987 148.092 1.04106C147.501 1.63226 147.168 2.43365 147.166 3.26972V160.072C147.168 160.908 147.501 161.709 148.092 162.301C148.683 162.892 149.485 163.225 150.321 163.226H261.872C262.708 163.225 263.51 162.892 264.101 162.301C264.692 161.709 265.025 160.908 265.027 160.072V3.26972C265.025 2.43365 264.692 1.63226 264.101 1.04106C263.51 0.44987 262.708 0.117065 261.872 0.115538H150.321Z" fill="#EBEBEB"/>
<path d="M288.845 189.136H0V189.28H288.845V189.136Z" fill="#EBEBEB"/>
<path d="M147.426 130.46C146.761 130.462 146.11 130.267 145.556 129.899C145.002 129.531 144.569 129.007 144.312 128.393C144.056 127.78 143.987 127.104 144.115 126.451C144.243 125.798 144.562 125.198 145.031 124.726C145.5 124.255 146.099 123.933 146.751 123.802C147.403 123.67 148.08 123.735 148.695 123.989C149.31 124.242 149.836 124.672 150.207 125.224C150.577 125.777 150.776 126.426 150.777 127.092C150.777 127.982 150.424 128.836 149.797 129.467C149.169 130.098 148.317 130.455 147.426 130.46ZM147.426 125.468C147.103 125.466 146.787 125.56 146.518 125.738C146.248 125.916 146.037 126.17 145.912 126.467C145.788 126.765 145.754 127.093 145.816 127.41C145.878 127.727 146.033 128.019 146.261 128.247C146.489 128.476 146.78 128.632 147.096 128.695C147.413 128.758 147.741 128.726 148.04 128.602C148.338 128.478 148.592 128.268 148.771 128C148.95 127.731 149.045 127.415 149.044 127.092C149.041 126.663 148.87 126.253 148.567 125.949C148.265 125.646 147.855 125.473 147.426 125.468Z" fill="#263238"/>
<path d="M149.757 128.298L148.53 129.523L152.51 133.508L153.737 132.284L149.757 128.298Z" fill="#263238"/>
<path d="M257.433 31.1343C258.966 21.6928 252.554 12.7965 243.113 11.2639C233.671 9.73135 224.775 16.1428 223.242 25.5843C221.71 35.0258 228.121 43.9221 237.563 45.4547C247.004 46.9872 255.9 40.5758 257.433 31.1343Z" fill="#E0E0E0"/>
<path d="M240.377 46.0592C235.735 45.9754 231.312 44.0728 228.06 40.7608C224.807 37.4489 222.984 32.9923 222.984 28.3502C222.984 23.7081 224.807 19.2515 228.06 15.9395C231.312 12.6276 235.735 10.7249 240.377 10.6411V11.421C235.941 11.5029 231.714 13.3226 228.606 16.4885C225.499 19.6544 223.757 23.9137 223.757 28.3502C223.757 32.7867 225.499 37.046 228.606 40.2119C231.714 43.3778 235.941 45.1974 240.377 45.2794V46.0592Z" fill="white"/>
<path d="M240.376 46.0592V45.2793C242.626 45.3209 244.861 44.9137 246.952 44.0816C249.042 43.2495 250.945 42.0091 252.551 40.433C254.156 38.8568 255.432 36.9765 256.302 34.9019C257.173 32.8273 257.621 30.6 257.621 28.3501C257.621 26.1003 257.173 23.873 256.302 21.7983C255.432 19.7237 254.156 17.8434 252.551 16.2673C250.945 14.6912 249.042 13.4508 246.952 12.6187C244.861 11.7866 242.626 11.3794 240.376 11.421V10.6411C242.729 10.5986 245.066 11.0252 247.252 11.8961C249.438 12.767 251.428 14.0647 253.107 15.7133C254.786 17.362 256.119 19.3286 257.029 21.4983C257.939 23.6679 258.408 25.9973 258.408 28.3501C258.408 30.703 257.939 33.0323 257.029 35.202C256.119 37.3717 254.786 39.3383 253.107 40.987C251.428 42.6356 249.438 43.9333 247.252 44.8042C245.066 45.675 242.729 46.1017 240.376 46.0592Z" fill="white"/>
<path d="M249.429 28.3532H248.649C248.649 22.6168 245.761 14.9335 240.169 11.3634L240.59 10.7048C246.39 14.4425 249.429 22.403 249.429 28.3532Z" fill="white"/>
<path d="M240.59 45.4756L240.169 44.817C245.738 41.2469 248.649 33.5636 248.649 27.8271H249.429C249.429 33.7773 246.39 41.7495 240.59 45.4756Z" fill="white"/>
<path d="M232.11 28.3532H231.33C231.33 22.3973 234.363 14.4252 240.169 10.7048L240.59 11.3576C235.021 14.9335 232.11 22.611 232.11 28.3532Z" fill="white"/>
<path d="M240.169 45.4699C234.363 41.7438 231.33 33.7717 231.33 27.8215H232.11C232.11 33.5638 234.998 41.2413 240.59 44.8114L240.169 45.4699Z" fill="white"/>
<path d="M240.77 11.0281H239.99V45.6663H240.77V11.0281Z" fill="white"/>
<path d="M255.044 18.7344H225.721V19.5143H255.044V18.7344Z" fill="white"/>
<path d="M257.696 28.2549H223.069V29.0348H257.696V28.2549Z" fill="white"/>
<path d="M254.651 37.7695H226.108V38.5494H254.651V37.7695Z" fill="white"/>
<path d="M55.2213 21.9522C55.2276 20.7778 55.0562 19.6092 54.713 18.4861L57.7343 15.8345L55.8337 12.5416L52.0267 13.8646C50.4278 12.1457 48.3551 10.9395 46.0707 10.3984L45.2793 6.46436H41.4839L40.6982 10.3984C38.4122 10.9394 36.3376 12.1455 34.7365 13.8646L30.9295 12.5763L29.0347 15.8691L32.0502 18.5207C31.3724 20.7641 31.3724 23.1577 32.0502 25.401L29.0347 28.0468L30.9295 31.3397L34.7365 30.0399C36.3376 31.7589 38.4122 32.965 40.6982 33.506L41.4839 37.4458H45.2793L46.0707 33.506C48.3551 32.9649 50.4278 31.7587 52.0267 30.0399L55.8337 31.3281L57.7343 28.0353L54.713 25.4183C55.0553 24.295 55.2266 23.1265 55.2213 21.9522ZM43.3845 28.353C42.1663 28.3541 40.9751 27.9939 39.9616 27.318C38.9481 26.642 38.1579 25.6806 37.691 24.5555C37.224 23.4303 37.1012 22.1919 37.3382 20.997C37.5751 19.802 38.1612 18.7042 39.0222 17.8424C39.8832 16.9806 40.9804 16.3935 42.1752 16.1554C43.3699 15.9173 44.6084 16.0389 45.734 16.5049C46.8596 16.9708 47.8217 17.7601 48.4986 18.7729C49.1755 19.7858 49.5369 20.9766 49.5369 22.1948C49.5376 23.0033 49.3791 23.8039 49.0702 24.551C48.7614 25.2981 48.3083 25.9771 47.7369 26.549C47.1655 27.1209 46.487 27.5746 45.7402 27.8841C44.9934 28.1937 44.1929 28.353 43.3845 28.353Z" fill="#E0E0E0"/>
<path d="M71.5121 38.324C71.5112 37.4375 71.3808 36.5559 71.1251 35.7071L73.4358 33.6852L71.9916 31.1838L69.1032 32.1658C67.885 30.8613 66.3065 29.9484 64.5683 29.5431L63.9906 26.5449H61.1022L60.5245 29.5431C58.7845 29.9483 57.2042 30.8611 55.9838 32.1658L53.0954 31.1838L51.6454 33.6852L53.9561 35.7071C53.44 37.4155 53.44 39.2383 53.9561 40.9467L51.6454 42.9629L53.0954 45.47L55.9838 44.488C57.2042 45.7927 58.7845 46.7055 60.5245 47.1107L61.1022 50.1089H63.9906L64.5683 47.1107C66.3065 46.7054 67.885 45.7925 69.1032 44.488L71.9916 45.47L73.4358 42.9629L71.1251 40.9467C71.3808 40.0959 71.5112 39.2124 71.5121 38.324ZM62.4944 43.1939C61.5661 43.1951 60.6584 42.9208 59.8861 42.4058C59.1138 41.8908 58.5117 41.1582 58.156 40.3009C57.8002 39.4435 57.7068 38.4998 57.8876 37.5894C58.0684 36.6789 58.5153 35.8425 59.1717 35.1862C59.8281 34.5298 60.6644 34.0829 61.5749 33.9021C62.4854 33.7213 63.429 33.8147 64.2864 34.1704C65.1438 34.5262 65.8763 35.1283 66.3913 35.9006C66.9063 36.6729 67.1806 37.5806 67.1795 38.5089C67.1795 39.7514 66.6859 40.9431 65.8072 41.8217C64.9286 42.7003 63.7369 43.1939 62.4944 43.1939Z" fill="#E0E0E0"/>
<path d="M114.735 23.4311L116.266 20.3174L117.802 23.4254L121.234 23.9222L118.75 26.3427L119.339 29.7568L116.272 28.1451L113.21 29.7626L113.793 26.3485L111.309 23.9279L114.735 23.4311Z" fill="#EBEBEB"/>
<path d="M128.698 23.4311L130.229 20.3174L131.765 23.4254L135.191 23.9222L132.713 26.3427L133.302 29.7568L130.234 28.1451L127.167 29.7626L127.75 26.3485L125.266 23.9279L128.698 23.4311Z" fill="#EBEBEB"/>
<path d="M142.655 23.4311L144.186 20.3174L145.722 23.4254L149.154 23.9222L146.675 26.3427L147.265 29.7568L144.197 28.1451L141.13 29.7626L141.713 26.3485L139.229 23.9279L142.655 23.4311Z" fill="#EBEBEB"/>
<path d="M156.617 23.4311L158.148 20.3174L159.685 23.4254L163.116 23.9222L160.632 26.3427L161.222 29.7568L158.154 28.1451L155.092 29.7626L155.676 26.3485L153.192 23.9279L156.617 23.4311Z" fill="#EBEBEB"/>
<path d="M170.58 23.4311L172.111 20.3174L173.648 23.4254L177.073 23.9222L174.595 26.3427L175.184 29.7568L172.117 28.1451L169.049 29.7626L169.633 26.3485L167.149 23.9279L170.58 23.4311Z" fill="#EBEBEB"/>
<path d="M141.638 213C203.498 213 253.646 210.072 253.646 206.461C253.646 202.849 203.498 199.921 141.638 199.921C79.7775 199.921 29.6298 202.849 29.6298 206.461C29.6298 210.072 79.7775 213 141.638 213Z" fill="#F5F5F5"/>
<path d="M103.788 200.707L103.672 202.035C103.66 202.199 103.677 202.363 103.724 202.521C103.745 202.594 103.776 202.664 103.817 202.729C103.859 202.793 103.905 202.855 103.955 202.913C104.006 202.973 104.064 203.025 104.128 203.069C104.324 203.209 104.558 203.283 104.799 203.283H152.4C152.514 203.283 152.627 203.266 152.735 203.231C152.811 203.208 152.884 203.179 152.955 203.144C153.206 203.021 153.409 202.818 153.532 202.567C153.606 202.427 153.651 202.274 153.665 202.116L153.775 200.839C153.793 200.687 153.775 200.533 153.723 200.389C153.701 200.322 153.672 200.258 153.636 200.198C153.547 200.047 153.419 199.922 153.267 199.834C153.202 199.799 153.134 199.768 153.065 199.742C152.958 199.707 152.847 199.69 152.735 199.69H140.881C140.732 199.692 140.583 199.678 140.436 199.649L140.269 199.603C140.205 199.585 140.143 199.562 140.084 199.534C140.026 199.516 139.971 199.488 139.922 199.453C139.839 199.41 139.76 199.36 139.685 199.303C139.596 199.231 139.512 199.152 139.437 199.066C139.396 199.014 139.356 198.968 139.316 198.91L139.235 198.794L139.206 198.748C139.171 198.696 139.142 198.639 139.119 198.581L139.05 198.425C139.052 198.413 139.052 198.401 139.05 198.39C139.053 198.377 139.053 198.363 139.05 198.35C139.033 198.305 139.021 198.258 139.015 198.211C139.009 198.146 139.009 198.08 139.015 198.015C139.015 197.957 139.015 197.893 139.015 197.83C139.015 197.766 139.015 197.708 139.015 197.645V197.57C139.012 197.508 139.012 197.446 139.015 197.385C139.015 197.316 139.044 197.258 139.056 197.194L143.712 179.332L144.607 175.901L145.306 173.214H118.27L116.82 175.901L114.972 179.332L104.458 198.823C104.423 198.893 104.388 198.962 104.348 199.031L104.244 199.268C104.215 199.349 104.18 199.424 104.152 199.511L104.1 199.673C103.958 200.005 103.853 200.351 103.788 200.707Z" fill="#263238"/>
<path opacity="0.2" d="M153.758 200.851L153.648 202.139C153.618 202.451 153.475 202.742 153.245 202.955C153.014 203.168 152.714 203.289 152.4 203.294H104.81C104.65 203.295 104.492 203.262 104.346 203.199C104.199 203.135 104.067 203.041 103.959 202.924C103.85 202.807 103.767 202.668 103.715 202.517C103.662 202.366 103.642 202.206 103.655 202.047L103.77 200.718C103.801 200.363 103.87 200.012 103.978 199.672C104.076 199.375 104.2 199.087 104.348 198.812L118.166 173.203H145.202L138.952 197.183C138.91 197.32 138.885 197.461 138.877 197.604C138.837 198.078 138.972 198.55 139.256 198.93C139.54 199.311 139.954 199.575 140.419 199.672C140.565 199.706 140.714 199.722 140.864 199.719H152.701C152.847 199.715 152.993 199.742 153.128 199.798C153.263 199.855 153.384 199.94 153.484 200.047C153.584 200.154 153.66 200.281 153.707 200.419C153.755 200.558 153.772 200.705 153.758 200.851Z" fill="white"/>
<path d="M102.829 198.8L116.641 173.186H118.172L104.354 198.8C104.033 199.39 103.837 200.038 103.776 200.707L103.661 202.035C103.643 202.195 103.66 202.357 103.711 202.51C103.761 202.663 103.844 202.803 103.954 202.921C104.064 203.039 104.197 203.131 104.346 203.193C104.495 203.255 104.655 203.283 104.816 203.277H103.285C103.124 203.283 102.964 203.255 102.815 203.193C102.667 203.131 102.533 203.039 102.423 202.921C102.314 202.803 102.231 202.663 102.18 202.51C102.129 202.357 102.112 202.195 102.13 202.035L102.245 200.707C102.305 200.038 102.504 199.388 102.829 198.8Z" fill="#263238"/>
<path opacity="0.3" d="M118.184 173.186H145.214L143.619 179.309H114.879L118.184 173.186Z" fill="black"/>
<path d="M72.3151 88.3172V171.66C72.3143 172.214 72.4227 172.762 72.634 173.274C72.8453 173.785 73.1554 174.25 73.5465 174.642C73.9376 175.034 74.4022 175.344 74.9135 175.556C75.4248 175.768 75.9729 175.878 76.5264 175.878H191.874C192.427 175.878 192.975 175.768 193.487 175.556C193.998 175.344 194.462 175.034 194.854 174.642C195.245 174.25 195.555 173.785 195.766 173.274C195.977 172.762 196.086 172.214 196.085 171.66V88.3172C196.086 87.7632 195.977 87.2145 195.766 86.7025C195.554 86.1905 195.243 85.7253 194.852 85.3336C194.46 84.9418 193.995 84.6312 193.483 84.4196C192.971 84.2079 192.422 84.0993 191.868 84.1001H76.538C75.6103 84.1008 74.7088 84.4074 73.973 84.9724C73.8697 85.0489 73.7713 85.1319 73.6784 85.2208C73.3942 85.4786 73.149 85.7763 72.9505 86.1047C72.8111 86.321 72.6949 86.5514 72.6039 86.7921C72.4161 87.2788 72.3182 87.7956 72.3151 88.3172Z" fill="#263238"/>
<path d="M196.085 162.649V171.661C196.085 172.779 195.641 173.852 194.85 174.643C194.059 175.433 192.986 175.878 191.868 175.878H76.5381C75.4196 175.878 74.347 175.433 73.5561 174.643C72.7652 173.852 72.3209 172.779 72.3209 171.661V162.649H196.085Z" fill="#659365"/>
<path opacity="0.6" d="M196.085 162.649V171.661C196.085 172.779 195.641 173.852 194.85 174.643C194.059 175.433 192.986 175.878 191.868 175.878H76.5381C75.4196 175.878 74.347 175.433 73.5561 174.643C72.7652 173.852 72.3209 172.779 72.3209 171.661V162.649H196.085Z" fill="white"/>
<path d="M76.6131 160.101H191.793C192.406 160.101 192.993 159.858 193.427 159.424C193.86 158.991 194.104 158.403 194.104 157.79V88.9643C194.104 88.3515 193.86 87.7637 193.427 87.3304C192.993 86.897 192.406 86.6536 191.793 86.6536H76.6131C76.0003 86.6536 75.4125 86.897 74.9792 87.3304C74.5458 87.7637 74.3024 88.3515 74.3024 88.9643V157.813C74.3085 158.422 74.5546 159.004 74.9873 159.432C75.42 159.861 76.0043 160.101 76.6131 160.101Z" fill="#659365"/>
<path d="M73.9847 84.1001H76.5381C75.4197 84.1001 74.347 84.5444 73.5561 85.3353C72.7653 86.1261 72.321 87.1988 72.321 88.3172V171.66C72.321 172.779 72.7653 173.852 73.5561 174.642C74.347 175.433 75.4197 175.878 76.5381 175.878H73.9847C72.8663 175.878 71.7936 175.433 71.0027 174.642C70.2119 173.852 69.7676 172.779 69.7676 171.66V88.3172C69.7676 87.1988 70.2119 86.1261 71.0027 85.3353C71.7936 84.5444 72.8663 84.1001 73.9847 84.1001Z" fill="#263238"/>
<g opacity="0.2">
<path d="M73.9847 84.1001H76.5381C75.4197 84.1001 74.347 84.5444 73.5561 85.3353C72.7653 86.1261 72.321 87.1988 72.321 88.3172V171.66C72.321 172.779 72.7653 173.852 73.5561 174.642C74.347 175.433 75.4197 175.878 76.5381 175.878H73.9847C72.8663 175.878 71.7936 175.433 71.0027 174.642C70.2119 173.852 69.7676 172.779 69.7676 171.66V88.3172C69.7676 87.1988 70.2119 86.1261 71.0027 85.3353C71.7936 84.5444 72.8663 84.1001 73.9847 84.1001Z" fill="white"/>
</g>
<path opacity="0.5" d="M194.785 130.512C191.816 129.934 187.114 131.858 186.236 134.746C186.334 133.864 186.177 132.972 185.783 132.178C185.388 131.383 184.773 130.718 184.011 130.263C182.481 129.379 180.476 128.755 179.066 129.818C179.735 126.979 179.599 124.01 178.674 121.244C177.75 118.478 176.073 116.024 173.833 114.157C169.315 110.5 162.724 110.113 157.507 112.661C158.261 111.212 158.689 109.616 158.76 107.985C158.832 106.354 158.545 104.726 157.921 103.217C157.297 101.709 156.35 100.354 155.146 99.2504C153.943 98.1464 152.513 97.3191 150.956 96.8265C143.7 94.2995 135.941 93.5642 128.34 94.6833C123.943 95.3303 119.46 96.7052 116.266 99.7901C113.071 102.875 112.222 108.455 114.371 112.343C111.891 111.542 109.239 111.436 106.704 112.036C104.168 112.636 101.845 113.919 99.9865 115.746C98.1951 117.617 96.9544 119.946 96.401 122.477C95.8475 125.007 96.0028 127.642 96.8496 130.09C96.1681 129.685 95.3962 129.457 94.6042 129.427C93.8122 129.397 93.0252 129.565 92.3148 129.917C91.6151 130.271 91.0172 130.799 90.5775 131.449C90.1379 132.098 89.871 132.85 89.8018 133.631C88.8781 132.412 87.6751 131.432 86.2939 130.775C84.9128 130.118 83.394 129.802 81.8653 129.854C80.3366 129.906 78.8428 130.325 77.5096 131.075C76.1764 131.824 75.0428 132.883 74.2042 134.163V160.101H194.104L194.785 130.512Z" fill="white"/>
<path d="M168.067 119.125H106.301C103.158 119.125 100.61 121.673 100.61 124.815C100.61 127.958 103.158 130.506 106.301 130.506H168.067C171.21 130.506 173.757 127.958 173.757 124.815C173.757 121.673 171.21 119.125 168.067 119.125Z" fill="white"/>
<path d="M105.948 126.994C105.283 126.994 104.633 126.796 104.08 126.427C103.527 126.058 103.096 125.532 102.842 124.918C102.588 124.304 102.521 123.628 102.651 122.976C102.78 122.323 103.101 121.724 103.571 121.254C104.041 120.784 104.64 120.464 105.292 120.334C105.944 120.204 106.62 120.271 107.235 120.525C107.849 120.78 108.374 121.211 108.744 121.764C109.113 122.316 109.31 122.966 109.31 123.631C109.309 124.523 108.954 125.377 108.324 126.007C107.694 126.637 106.839 126.992 105.948 126.994ZM105.948 122.002C105.626 122.002 105.311 122.098 105.043 122.277C104.775 122.456 104.566 122.71 104.443 123.008C104.32 123.306 104.288 123.633 104.35 123.949C104.413 124.265 104.568 124.556 104.796 124.783C105.024 125.011 105.314 125.166 105.63 125.229C105.946 125.292 106.274 125.26 106.572 125.137C106.869 125.013 107.124 124.804 107.303 124.537C107.482 124.269 107.577 123.954 107.577 123.631C107.576 123.2 107.404 122.786 107.098 122.481C106.793 122.176 106.38 122.004 105.948 122.002Z" fill="#263238"/>
<path d="M108.275 124.826L107.049 126.051L111.029 130.036L112.255 128.811L108.275 124.826Z" fill="#263238"/>
<g opacity="0.1">
<path d="M155.092 86.6477H159.518L168.709 160.101H164.278L155.092 86.6477Z" fill="white"/>
<path d="M173.186 160.101L164 86.6477H180.643L189.829 160.101H173.186Z" fill="white"/>
</g>
<path opacity="0.2" d="M111.997 200.863L111.893 202.082C111.875 202.234 111.891 202.389 111.938 202.535C111.985 202.681 112.063 202.816 112.167 202.93C112.27 203.043 112.396 203.134 112.537 203.195C112.678 203.256 112.831 203.286 112.985 203.283H152.4C152.714 203.278 153.014 203.157 153.245 202.944C153.475 202.73 153.618 202.44 153.648 202.128L153.758 200.851C153.776 200.704 153.763 200.555 153.718 200.414C153.674 200.273 153.599 200.143 153.5 200.034C153.401 199.924 153.279 199.837 153.143 199.779C153.007 199.72 152.86 199.692 152.712 199.696H140.875C140.727 199.696 140.58 199.679 140.436 199.644H113.285C112.959 199.655 112.648 199.785 112.41 200.01C112.173 200.234 112.026 200.537 111.997 200.863Z" fill="white"/>
<path opacity="0.2" d="M103.984 199.661H140.436C139.97 199.566 139.556 199.303 139.272 198.921C138.989 198.539 138.856 198.067 138.9 197.593H105.14L103.984 199.661Z" fill="black"/>
<path d="M122.626 112.297L123.423 110.524C124.41 111.206 125.58 111.576 126.78 111.587C128.172 111.587 128.738 111.119 128.738 110.495C128.738 108.594 122.828 109.917 122.828 106.127C122.828 104.394 124.221 102.962 127.109 102.962C128.346 102.936 129.566 103.248 130.639 103.863L129.911 105.648C129.056 105.142 128.085 104.867 127.092 104.851C125.699 104.851 125.162 105.371 125.162 106.006C125.162 107.878 131.072 106.584 131.072 110.316C131.072 112.014 129.662 113.47 126.757 113.47C125.293 113.506 123.852 113.097 122.626 112.297Z" fill="#263238"/>
<path d="M140.558 111.413V113.296H132.689V103.135H140.378V105.024H135.035V107.231H139.755V109.062H135.035V111.413H140.558Z" fill="#263238"/>
<path d="M141.765 108.218C141.765 105.197 144.116 102.961 147.322 102.961C150.529 102.961 152.886 105.186 152.886 108.218C152.886 111.251 150.517 113.475 147.322 113.475C144.128 113.475 141.765 111.24 141.765 108.218ZM150.505 108.218C150.487 107.594 150.286 106.988 149.925 106.477C149.565 105.966 149.063 105.573 148.48 105.345C147.898 105.118 147.262 105.068 146.651 105.2C146.04 105.332 145.481 105.641 145.045 106.088C144.609 106.536 144.314 107.102 144.197 107.716C144.08 108.33 144.146 108.965 144.388 109.541C144.63 110.118 145.036 110.61 145.556 110.958C146.075 111.305 146.686 111.491 147.311 111.494C147.741 111.507 148.169 111.431 148.568 111.27C148.967 111.109 149.329 110.867 149.629 110.559C149.929 110.251 150.163 109.884 150.313 109.481C150.464 109.078 150.53 108.648 150.505 108.218Z" fill="#263238"/>
<path opacity="0.8" d="M134.151 137.975H109.773C108.544 137.975 107.548 138.971 107.548 140.199V145.352C107.548 146.581 108.544 147.577 109.773 147.577H134.151C135.379 147.577 136.375 146.581 136.375 145.352V140.199C136.375 138.971 135.379 137.975 134.151 137.975Z" fill="white"/>
<path opacity="0.8" d="M169.506 137.975H145.127C143.899 137.975 142.903 138.971 142.903 140.199V145.352C142.903 146.581 143.899 147.577 145.127 147.577H169.506C170.734 147.577 171.73 146.581 171.73 145.352V140.199C171.73 138.971 170.734 137.975 169.506 137.975Z" fill="white"/>
<path d="M121.269 89.9231L135.59 64.5048C135.64 64.4159 135.713 64.3419 135.801 64.2905C135.89 64.239 135.99 64.2119 136.092 64.2119C136.194 64.2119 136.295 64.239 136.383 64.2905C136.471 64.3419 136.544 64.4159 136.595 64.5048L150.916 89.9231C150.964 90.0108 150.988 90.1094 150.987 90.2093C150.985 90.3092 150.958 90.407 150.907 90.4932C150.856 90.5793 150.784 90.6509 150.698 90.7008C150.611 90.7507 150.513 90.7774 150.413 90.7781H121.777C121.677 90.7784 121.578 90.7525 121.49 90.7029C121.403 90.6534 121.33 90.582 121.279 90.4956C121.228 90.4093 121.2 90.3111 121.198 90.2107C121.196 90.1103 121.22 90.0112 121.269 89.9231Z" fill="#659365"/>
<path opacity="0.3" d="M121.269 89.9231L135.59 64.5048C135.64 64.4159 135.713 64.3419 135.801 64.2905C135.89 64.239 135.99 64.2119 136.092 64.2119C136.194 64.2119 136.295 64.239 136.383 64.2905C136.471 64.3419 136.544 64.4159 136.595 64.5048L150.916 89.9231C150.964 90.0108 150.988 90.1094 150.987 90.2093C150.985 90.3092 150.958 90.407 150.907 90.4932C150.856 90.5793 150.784 90.6509 150.698 90.7008C150.611 90.7507 150.513 90.7774 150.413 90.7781H121.777C121.677 90.7784 121.578 90.7525 121.49 90.7029C121.403 90.6534 121.33 90.582 121.279 90.4956C121.228 90.4093 121.2 90.3111 121.198 90.2107C121.196 90.1103 121.22 90.0112 121.269 89.9231Z" fill="black"/>
<path d="M129.287 94.585L128.588 91.7312H126.081L125.387 94.585C126.636 95.102 128.038 95.102 129.287 94.585Z" fill="#263238"/>
<path opacity="0.2" d="M126.081 91.7312L125.919 92.3955C126.843 92.6671 127.826 92.6671 128.75 92.3955L128.588 91.7312H126.081Z" fill="white"/>
<path opacity="0.4" d="M125.746 93.1118C125.699 93.2967 125.653 93.4758 125.613 93.6491C126.741 94.0039 127.951 94.0039 129.079 93.6491L128.952 93.1118C127.894 93.3258 126.804 93.3258 125.746 93.1118Z" fill="white"/>
<path d="M129.98 91.5292C128.286 92.2289 126.383 92.2289 124.688 91.5292V70.328C124.687 69.1412 124.92 67.9658 125.374 66.8693C125.828 65.7728 126.494 64.7769 127.334 63.9387C128.175 64.7769 128.841 65.7728 129.295 66.8693C129.749 67.9658 129.982 69.1412 129.98 70.328V91.5292Z" fill="#659365"/>
<path d="M124.688 70.328V90.3102C126.402 90.9081 128.267 90.9081 129.98 90.3102V70.328C129.982 69.1412 129.749 67.9658 129.295 66.8693C128.841 65.7728 128.175 64.7769 127.334 63.9387C126.494 64.7769 125.828 65.7728 125.374 66.8693C124.92 67.9658 124.687 69.1412 124.688 70.328Z" fill="#659365"/>
<path opacity="0.4" d="M124.688 70.328V90.3102C126.402 90.9081 128.267 90.9081 129.98 90.3102V70.328C129.982 69.1412 129.749 67.9658 129.295 66.8693C128.841 65.7728 128.175 64.7769 127.334 63.9387C126.494 64.7769 125.828 65.7728 125.374 66.8693C124.92 67.9658 124.687 69.1412 124.688 70.328Z" fill="white"/>
<path d="M124.688 70.328V85.3479C126.418 85.842 128.251 85.842 129.98 85.3479V70.328C129.982 69.1412 129.749 67.9658 129.295 66.8693C128.841 65.7728 128.175 64.7769 127.334 63.9387C126.494 64.7769 125.828 65.7728 125.374 66.8693C124.92 67.9658 124.687 69.1412 124.688 70.328Z" fill="#659365"/>
<path opacity="0.6" d="M124.688 70.328V85.3479C126.418 85.842 128.251 85.842 129.98 85.3479V70.328C129.982 69.1412 129.749 67.9658 129.295 66.8693C128.841 65.7728 128.175 64.7769 127.334 63.9387C126.494 64.7769 125.828 65.7728 125.374 66.8693C124.92 67.9658 124.687 69.1412 124.688 70.328Z" fill="white"/>
<path d="M124.688 70.328V78.1845C126.417 78.6815 128.251 78.6815 129.98 78.1845V70.328C129.982 69.1412 129.749 67.9658 129.295 66.8693C128.841 65.7728 128.175 64.7769 127.334 63.9387C126.494 64.7769 125.828 65.7728 125.374 66.8693C124.92 67.9658 124.687 69.1412 124.688 70.328Z" fill="#659365"/>
<path opacity="0.8" d="M124.688 70.328V78.1845C126.417 78.6815 128.251 78.6815 129.98 78.1845V70.328C129.982 69.1412 129.749 67.9658 129.295 66.8693C128.841 65.7728 128.175 64.7769 127.334 63.9387C126.494 64.7769 125.828 65.7728 125.374 66.8693C124.92 67.9658 124.687 69.1412 124.688 70.328Z" fill="white"/>
<path d="M124.688 70.328V71.2465C126.418 71.7406 128.251 71.7406 129.98 71.2465V70.328C129.982 69.1412 129.749 67.9658 129.295 66.8693C128.841 65.7728 128.175 64.7769 127.334 63.9387C126.494 64.7769 125.828 65.7728 125.374 66.8693C124.92 67.9658 124.687 69.1412 124.688 70.328Z" fill="#659365"/>
<path opacity="0.4" d="M124.688 70.328V71.2465C126.418 71.7406 128.251 71.7406 129.98 71.2465V70.328C129.982 69.1412 129.749 67.9658 129.295 66.8693C128.841 65.7728 128.175 64.7769 127.334 63.9387C126.494 64.7769 125.828 65.7728 125.374 66.8693C124.92 67.9658 124.687 69.1412 124.688 70.328Z" fill="white"/>
<path d="M146.311 94.585L145.618 91.7312H143.111L142.412 94.585C143.66 95.102 145.063 95.102 146.311 94.585Z" fill="#263238"/>
<path opacity="0.2" d="M143.111 91.7312L142.949 92.3955C143.873 92.6671 144.856 92.6671 145.78 92.3955L145.618 91.7312H143.111Z" fill="white"/>
<path opacity="0.4" d="M142.77 93.1118C142.73 93.2967 142.684 93.4758 142.643 93.6491C143.771 94.0039 144.981 94.0039 146.109 93.6491L145.976 93.1118C144.918 93.3258 143.828 93.3258 142.77 93.1118Z" fill="white"/>
<path d="M147.011 91.5292C145.316 92.2289 143.413 92.2289 141.719 91.5292V70.328C141.717 69.1412 141.95 67.9658 142.404 66.8693C142.858 65.7728 143.524 64.7769 144.365 63.9387C145.205 64.7769 145.871 65.7728 146.325 66.8693C146.779 67.9658 147.012 69.1412 147.011 70.328V91.5292Z" fill="#659365"/>
<path d="M141.719 70.328V90.3102C143.432 90.9081 145.297 90.9081 147.011 90.3102V70.328C147.012 69.1412 146.779 67.9658 146.325 66.8693C145.871 65.7728 145.205 64.7769 144.365 63.9387C143.524 64.7769 142.858 65.7728 142.404 66.8693C141.95 67.9658 141.717 69.1412 141.719 70.328Z" fill="#659365"/>
<path opacity="0.4" d="M141.719 70.328V90.3102C143.432 90.9081 145.297 90.9081 147.011 90.3102V70.328C147.012 69.1412 146.779 67.9658 146.325 66.8693C145.871 65.7728 145.205 64.7769 144.365 63.9387C143.524 64.7769 142.858 65.7728 142.404 66.8693C141.95 67.9658 141.717 69.1412 141.719 70.328Z" fill="white"/>
<path d="M141.719 70.328V85.3479C143.448 85.842 145.281 85.842 147.011 85.3479V70.328C147.012 69.1412 146.779 67.9658 146.325 66.8693C145.871 65.7728 145.205 64.7769 144.365 63.9387C143.524 64.7769 142.858 65.7728 142.404 66.8693C141.95 67.9658 141.717 69.1412 141.719 70.328Z" fill="#659365"/>
<path opacity="0.6" d="M141.719 70.328V85.3479C143.448 85.842 145.281 85.842 147.011 85.3479V70.328C147.012 69.1412 146.779 67.9658 146.325 66.8693C145.871 65.7728 145.205 64.7769 144.365 63.9387C143.524 64.7769 142.858 65.7728 142.404 66.8693C141.95 67.9658 141.717 69.1412 141.719 70.328Z" fill="white"/>
<path d="M141.719 70.328V78.1845C143.448 78.6815 145.282 78.6815 147.011 78.1845V70.328C147.012 69.1412 146.779 67.9658 146.325 66.8693C145.871 65.7728 145.205 64.7769 144.365 63.9387C143.524 64.7769 142.858 65.7728 142.404 66.8693C141.95 67.9658 141.717 69.1412 141.719 70.328Z" fill="#659365"/>
<path opacity="0.8" d="M141.719 70.328V78.1845C143.448 78.6815 145.282 78.6815 147.011 78.1845V70.328C147.012 69.1412 146.779 67.9658 146.325 66.8693C145.871 65.7728 145.205 64.7769 144.365 63.9387C143.524 64.7769 142.858 65.7728 142.404 66.8693C141.95 67.9658 141.717 69.1412 141.719 70.328Z" fill="white"/>
<path d="M141.719 70.328V71.2465C143.448 71.7406 145.281 71.7406 147.011 71.2465V70.328C147.012 69.1412 146.779 67.9658 146.325 66.8693C145.871 65.7728 145.205 64.7769 144.365 63.9387C143.524 64.7769 142.858 65.7728 142.404 66.8693C141.95 67.9658 141.717 69.1412 141.719 70.328Z" fill="#659365"/>
<path opacity="0.4" d="M141.719 70.328V71.2465C143.448 71.7406 145.281 71.7406 147.011 71.2465V70.328C147.012 69.1412 146.779 67.9658 146.325 66.8693C145.871 65.7728 145.205 64.7769 144.365 63.9387C143.524 64.7769 142.858 65.7728 142.404 66.8693C141.95 67.9658 141.717 69.1412 141.719 70.328Z" fill="white"/>
<path d="M138.998 96.2199L137.842 91.5984H133.799L132.672 96.2199C133.674 96.6401 134.749 96.8566 135.835 96.8566C136.921 96.8566 137.996 96.6401 138.998 96.2199Z" fill="#263238"/>
<path opacity="0.2" d="M133.828 91.6156C133.828 91.6156 133.66 92.3089 133.562 92.6901C135.056 93.1263 136.643 93.1263 138.137 92.6901L137.871 91.6099L133.828 91.6156Z" fill="white"/>
<path opacity="0.4" d="M133.279 93.8513L133.071 94.7179C134.881 95.2784 136.818 95.2784 138.628 94.7179L138.42 93.8513C136.723 94.1861 134.976 94.1861 133.279 93.8513Z" fill="white"/>
<path d="M140.124 91.275C138.77 91.84 137.317 92.1309 135.849 92.1309C134.382 92.1309 132.929 91.84 131.574 91.275V57.0642C131.573 55.1485 131.949 53.2514 132.683 51.4818C133.417 49.7121 134.493 48.1049 135.849 46.7524C137.206 48.1049 138.282 49.7121 139.016 51.4818C139.749 53.2514 140.126 55.1485 140.124 57.0642V91.275Z" fill="#659365"/>
<path d="M131.574 57.0642V89.3282C134.344 90.2873 137.355 90.2873 140.124 89.3282V57.0642C140.126 55.1485 139.749 53.2514 139.016 51.4818C138.282 49.7121 137.206 48.1049 135.849 46.7524C134.493 48.1049 133.417 49.7121 132.683 51.4818C131.949 53.2514 131.573 55.1485 131.574 57.0642Z" fill="#659365"/>
<path opacity="0.4" d="M131.574 57.0642V89.3282C134.344 90.2873 137.355 90.2873 140.124 89.3282V57.0642C140.126 55.1485 139.749 53.2514 139.016 51.4818C138.282 49.7121 137.206 48.1049 135.849 46.7524C134.493 48.1049 133.417 49.7121 132.683 51.4818C131.949 53.2514 131.573 55.1485 131.574 57.0642Z" fill="white"/>
<path d="M131.574 57.0642V81.2925C134.369 82.0888 137.33 82.0888 140.124 81.2925V57.0642C140.126 55.1485 139.749 53.2514 139.016 51.4818C138.282 49.7121 137.206 48.1049 135.849 46.7524C134.493 48.1049 133.417 49.7121 132.683 51.4818C131.949 53.2514 131.573 55.1485 131.574 57.0642Z" fill="#659365"/>
<path opacity="0.6" d="M131.574 57.0642V81.2925C134.369 82.0888 137.33 82.0888 140.124 81.2925V57.0642C140.126 55.1485 139.749 53.2514 139.016 51.4818C138.282 49.7121 137.206 48.1049 135.849 46.7524C134.493 48.1049 133.417 49.7121 132.683 51.4818C131.949 53.2514 131.573 55.1485 131.574 57.0642Z" fill="white"/>
<path d="M131.574 57.0642V69.7734C134.369 70.5697 137.33 70.5697 140.124 69.7734V57.0642C140.126 55.1485 139.749 53.2514 139.016 51.4818C138.282 49.7121 137.206 48.1049 135.849 46.7524C134.493 48.1049 133.417 49.7121 132.683 51.4818C131.949 53.2514 131.573 55.1485 131.574 57.0642Z" fill="#659365"/>
<path opacity="0.8" d="M131.574 57.0642V69.7734C134.369 70.5697 137.33 70.5697 140.124 69.7734V57.0642C140.126 55.1485 139.749 53.2514 139.016 51.4818C138.282 49.7121 137.206 48.1049 135.849 46.7524C134.493 48.1049 133.417 49.7121 132.683 51.4818C131.949 53.2514 131.573 55.1485 131.574 57.0642Z" fill="white"/>
<path d="M131.574 57.0642V58.5489C134.369 59.3452 137.33 59.3452 140.124 58.5489V57.0642C140.126 55.1485 139.749 53.2514 139.016 51.4818C138.282 49.7121 137.206 48.1049 135.849 46.7524C134.493 48.1049 133.417 49.7121 132.683 51.4818C131.949 53.2514 131.573 55.1485 131.574 57.0642Z" fill="#659365"/>
<path opacity="0.1" d="M131.574 57.0642V58.5489C134.369 59.3452 137.33 59.3452 140.124 58.5489V57.0642C140.126 55.1485 139.749 53.2514 139.016 51.4818C138.282 49.7121 137.206 48.1049 135.849 46.7524C134.493 48.1049 133.417 49.7121 132.683 51.4818C131.949 53.2514 131.573 55.1485 131.574 57.0642Z" fill="white"/>
<path d="M138.339 63.9098C138.341 64.4025 138.196 64.8845 137.923 65.2947C137.65 65.7049 137.261 66.0249 136.806 66.2143C136.352 66.4036 135.851 66.4537 135.367 66.3583C134.884 66.2629 134.44 66.0262 134.091 65.6782C133.742 65.3303 133.505 64.8866 133.408 64.4035C133.311 63.9204 133.36 63.4194 133.549 62.9641C133.737 62.5088 134.056 62.1196 134.466 61.8458C134.875 61.572 135.357 61.4258 135.85 61.4258C136.509 61.4258 137.141 61.6873 137.608 62.153C138.075 62.6187 138.338 63.2505 138.339 63.9098Z" fill="#659365"/>
<path d="M135.849 66.3996C135.22 66.4011 134.614 66.1631 134.154 65.734C133.693 65.3048 133.414 64.7167 133.371 64.0889C133.371 64.1524 133.371 64.216 133.371 64.2737C133.371 64.9341 133.633 65.5674 134.1 66.0343C134.567 66.5012 135.201 66.7636 135.861 66.7636C136.521 66.7636 137.155 66.5012 137.622 66.0343C138.088 65.5674 138.351 64.9341 138.351 64.2737C138.351 64.216 138.351 64.1524 138.351 64.0889C138.307 64.7202 138.023 65.3109 137.558 65.7403C137.093 66.1698 136.482 66.4056 135.849 66.3996Z" fill="#659365"/>
<path opacity="0.3" d="M135.849 66.3996C135.22 66.4011 134.614 66.1631 134.154 65.734C133.693 65.3048 133.414 64.7167 133.371 64.0889C133.371 64.1524 133.371 64.216 133.371 64.2737C133.371 64.9341 133.633 65.5674 134.1 66.0343C134.567 66.5012 135.201 66.7636 135.861 66.7636C136.521 66.7636 137.155 66.5012 137.622 66.0343C138.088 65.5674 138.351 64.9341 138.351 64.2737C138.351 64.216 138.351 64.1524 138.351 64.0889C138.307 64.7202 138.023 65.3109 137.558 65.7403C137.093 66.1698 136.482 66.4056 135.849 66.3996Z" fill="black"/>
<path d="M135.849 65.6718C136.823 65.6718 137.611 64.883 137.611 63.9099C137.611 62.9368 136.823 62.1479 135.849 62.1479C134.876 62.1479 134.088 62.9368 134.088 63.9099C134.088 64.883 134.876 65.6718 135.849 65.6718Z" fill="white"/>
<path d="M135.757 65.6602L136.479 62.275C136.295 62.2024 136.099 62.1633 135.901 62.1594L135.179 65.5389C135.363 65.6138 135.559 65.6549 135.757 65.6602Z" fill="#659365"/>
<path d="M136.416 65.5735L137.039 62.6215C136.959 62.548 136.872 62.4822 136.779 62.425L136.092 65.6486C136.202 65.6324 136.31 65.6073 136.416 65.5735Z" fill="#659365"/>
<g opacity="0.7">
<path d="M135.757 65.6602L136.479 62.275C136.295 62.2024 136.099 62.1633 135.901 62.1594L135.179 65.5389C135.363 65.6138 135.559 65.6549 135.757 65.6602Z" fill="white"/>
<path d="M136.416 65.5735L137.039 62.6215C136.959 62.548 136.872 62.4822 136.779 62.425L136.092 65.6486C136.202 65.6324 136.31 65.6073 136.416 65.5735Z" fill="white"/>
</g>
<path d="M199.632 130.708L198.968 130.853C198.67 130.913 198.399 131.064 198.192 131.286C197.985 131.507 197.852 131.788 197.812 132.089L197.755 132.557C197.725 132.79 197.752 133.028 197.834 133.248C197.917 133.469 198.052 133.666 198.228 133.822C199.32 134.775 201.897 136.543 205.016 135.405L207.506 133.527L207.096 130.165L201.897 129.414C201.582 129.426 201.28 129.539 201.036 129.738L199.632 130.708Z" fill="#FAB27B"/>
<path d="M207.523 133.527L214.438 133.18L213.37 129.42L207.113 130.165L207.523 133.527Z" fill="#FAB27B"/>
<path d="M211.642 129.449C211.359 129.979 211.261 130.589 211.365 131.182C211.491 132.141 211.876 133.048 212.48 133.805C211.315 133.822 210.169 134.104 209.129 134.631L209.072 134.66C205.467 132.199 207.546 129.281 207.546 129.281L207.783 129.316C209.062 129.493 210.355 129.537 211.642 129.449Z" fill="#659365"/>
<path d="M225.802 132.551C219.378 134.03 211.388 133.885 211.388 133.885C211.125 133.441 211.006 132.927 211.047 132.412C211.105 131.338 211.25 129.992 211.625 129.449C212.001 128.906 214.779 128.617 214.779 128.617C214.779 128.617 220.146 126.127 221.163 125.312C222.179 124.498 222.139 120.691 221.948 118.189C220.926 104.747 223.289 103.747 225.415 103.129C229.92 101.876 231.486 131.239 225.802 132.551Z" fill="#659365"/>
<path d="M181.787 135.433H199.742C200.32 135.433 200.591 134.96 200.32 134.376L195.837 124.249C195.697 123.954 195.482 123.701 195.213 123.516C194.944 123.33 194.631 123.218 194.306 123.192H176.346C175.768 123.192 175.496 123.666 175.768 124.249L180.274 134.376C180.412 134.669 180.624 134.921 180.89 135.107C181.155 135.292 181.465 135.405 181.787 135.433Z" fill="#659365"/>
<path opacity="0.2" d="M181.787 135.433H199.742C200.32 135.433 200.591 134.96 200.32 134.376L195.837 124.249C195.697 123.954 195.482 123.701 195.213 123.516C194.944 123.33 194.631 123.218 194.306 123.192H176.346C175.768 123.192 175.496 123.666 175.768 124.249L180.274 134.376C180.412 134.669 180.624 134.921 180.89 135.107C181.155 135.292 181.465 135.405 181.787 135.433Z" fill="black"/>
<path d="M175.566 123.192H176.345C175.768 123.192 175.496 123.666 175.768 124.249L180.274 134.376C180.413 134.671 180.627 134.924 180.895 135.109C181.162 135.295 181.474 135.407 181.799 135.433H181.025C180.699 135.407 180.386 135.296 180.118 135.11C179.849 134.924 179.634 134.671 179.494 134.376L174.994 124.249C174.722 123.666 174.982 123.192 175.566 123.192Z" fill="#659365"/>
<path opacity="0.4" d="M175.566 123.192H176.345C175.768 123.192 175.496 123.666 175.768 124.249L180.274 134.376C180.413 134.671 180.627 134.924 180.895 135.109C181.162 135.295 181.474 135.407 181.799 135.433H181.025C180.699 135.407 180.386 135.296 180.118 135.11C179.849 134.924 179.634 134.671 179.494 134.376L174.994 124.249C174.722 123.666 174.982 123.192 175.566 123.192Z" fill="black"/>
<path d="M182.122 134.272H198.373L193.965 124.354H177.715L182.122 134.272Z" fill="#263238"/>
<path opacity="0.8" d="M182.122 134.272H198.373L193.965 124.354H177.715L182.122 134.272Z" fill="white"/>
<path d="M235.593 134.642C235.593 134.642 236.038 140.569 236.102 142.649C236.535 156.542 225.195 157.599 216.853 156.068L186.64 147.623C185.444 151.638 171.476 173.746 171.476 173.746L164.133 169.529C164.133 169.529 171.747 151.279 176.663 138.576C179.465 131.326 202.301 136.34 210.712 137.837C213.266 138.524 212.775 134.532 212.775 134.532L235.593 134.642Z" fill="#263238"/>
<path d="M169.604 173.33L166.796 178.003L161.568 175.404L164.289 170.083L169.604 173.33Z" fill="#FAB27B"/>
<path d="M158.784 174.462C158.096 174.144 157.438 173.694 157.345 173.307C157.329 173.194 157.346 173.08 157.394 172.977C157.442 172.874 157.52 172.788 157.617 172.729C157.7 172.672 157.795 172.632 157.894 172.613C157.993 172.593 158.095 172.593 158.194 172.613C159.24 172.781 160.673 174.774 160.731 174.861C160.749 174.885 160.759 174.914 160.759 174.944C160.759 174.975 160.749 175.004 160.731 175.028C160.712 175.051 160.688 175.068 160.661 175.079C160.633 175.089 160.603 175.091 160.575 175.086C159.96 174.931 159.361 174.722 158.784 174.462ZM158.397 172.977C158.313 172.936 158.223 172.909 158.131 172.896C158.073 172.881 158.012 172.878 157.953 172.889C157.894 172.9 157.838 172.924 157.79 172.96C157.617 173.081 157.611 173.174 157.628 173.237C157.721 173.717 159.119 174.364 160.211 174.71C159.723 174.016 159.107 173.422 158.397 172.96V172.977Z" fill="#659365"/>
<path d="M160.534 175.04C160.517 175.047 160.499 175.047 160.482 175.04C159.956 174.462 159.171 172.631 159.575 172.059C159.656 171.915 159.852 171.782 160.234 171.915C160.372 171.963 160.5 172.04 160.608 172.139C160.716 172.238 160.803 172.358 160.863 172.492C161.302 173.399 160.765 174.965 160.742 175.034C160.734 175.059 160.718 175.081 160.698 175.097C160.677 175.113 160.653 175.124 160.627 175.127C160.606 175.12 160.586 175.109 160.57 175.094C160.554 175.079 160.542 175.06 160.534 175.04ZM160.205 172.151L160.136 172.111C159.887 172.019 159.829 172.111 159.806 172.14C159.598 172.498 160.043 173.838 160.546 174.56C160.767 173.901 160.781 173.189 160.586 172.521C160.509 172.355 160.373 172.224 160.205 172.151Z" fill="#659365"/>
<path d="M161.476 174.549L167.53 177.316C167.637 177.365 167.726 177.448 167.781 177.553C167.836 177.657 167.856 177.777 167.836 177.893L166.681 183.324C166.657 183.439 166.611 183.548 166.545 183.646C166.48 183.743 166.395 183.826 166.297 183.891C166.198 183.955 166.088 184 165.973 184.021C165.857 184.043 165.739 184.041 165.624 184.017C165.562 184.006 165.501 183.986 165.444 183.959C163.278 182.925 161.401 181.914 158.668 180.678C155.462 179.211 156.097 179.967 152.314 178.292C150.003 177.281 150.794 174.508 151.811 174.826C156.479 176.293 157.547 175.167 159.974 174.37C160.479 174.239 161.015 174.303 161.476 174.549Z" fill="#263238"/>
<path opacity="0.2" d="M168.177 175.704L169.604 173.33L164.289 170.083L162.972 172.654L168.177 175.704Z" fill="black"/>
<path d="M172.642 173.307L163.538 167.628C163.124 167.859 162.791 168.212 162.584 168.639C162.377 169.066 162.307 169.546 162.383 170.014L171.14 175.618C171.14 175.618 172.313 175.543 172.642 173.307Z" fill="#659365"/>
<path d="M185.098 196.582L183.994 201.764L178.367 201.024L179.188 195.271L185.098 196.582Z" fill="#FAB27B"/>
<path d="M175.508 201.036C174.774 200.961 174.029 200.753 173.815 200.412C173.769 200.319 173.75 200.215 173.763 200.112C173.775 200.01 173.817 199.913 173.885 199.834C174 199.682 174.17 199.581 174.358 199.551C175.369 199.378 177.316 200.753 177.403 200.816C177.426 200.833 177.443 200.856 177.452 200.883C177.462 200.91 177.462 200.939 177.455 200.966C177.446 200.994 177.429 201.019 177.407 201.037C177.384 201.056 177.357 201.067 177.328 201.07C176.721 201.111 176.112 201.099 175.508 201.036ZM174.682 199.794C174.592 199.779 174.5 199.779 174.41 199.794C174.352 199.798 174.295 199.816 174.244 199.845C174.193 199.873 174.149 199.913 174.116 199.961C173.994 200.129 174.023 200.215 174.058 200.267C174.295 200.677 175.791 200.845 176.894 200.805C176.228 200.327 175.477 199.98 174.682 199.782V199.794Z" fill="#659365"/>
<path d="M177.31 201.036C177.291 201.042 177.271 201.042 177.252 201.036C176.577 200.649 175.283 199.233 175.473 198.581C175.502 198.419 175.641 198.24 176.051 198.24C176.191 198.238 176.33 198.264 176.459 198.318C176.588 198.372 176.705 198.451 176.802 198.552C177.495 199.245 177.495 200.863 177.495 200.926C177.495 200.951 177.489 200.976 177.475 200.998C177.462 201.019 177.443 201.036 177.42 201.047C177.402 201.056 177.383 201.059 177.363 201.057C177.344 201.055 177.326 201.048 177.31 201.036ZM176.097 198.506H176.022C175.768 198.506 175.739 198.604 175.727 198.638C175.652 199.037 176.484 200.129 177.172 200.631C177.168 199.956 176.956 199.299 176.565 198.748C176.441 198.62 176.275 198.54 176.097 198.523V198.506Z" fill="#659365"/>
<path d="M178.015 200.262L184.456 200.897C184.575 200.908 184.686 200.96 184.771 201.043C184.856 201.126 184.91 201.236 184.924 201.354L185.577 206.709C185.605 206.937 185.542 207.167 185.401 207.349C185.26 207.53 185.054 207.649 184.826 207.679C184.764 207.685 184.703 207.685 184.641 207.679C182.33 207.408 180.268 207.102 177.38 206.801C173.965 206.466 174.791 206.957 170.771 206.622C168.35 206.414 168.177 203.624 169.217 203.589C173.965 203.462 174.595 202.093 176.565 200.591C176.992 200.309 177.508 200.192 178.015 200.262Z" fill="#263238"/>
<path opacity="0.2" d="M178.754 198.298L184.635 198.754L185.097 196.582L179.188 195.271L178.754 198.298Z" fill="black"/>
<path d="M186.767 194.531L186.599 195.184L177.974 194.502L178.067 193.849L186.767 194.531Z" fill="#263238"/>
<path d="M187.119 197.235L184.993 197.044L179.009 196.507L177.079 196.334C176.805 195.965 176.65 195.521 176.634 195.062C176.619 194.603 176.744 194.149 176.992 193.763L178.067 193.85L186.767 194.531L187.391 194.583C188.113 196.657 187.119 197.235 187.119 197.235Z" fill="#659365"/>
<path d="M222.139 161.221C214.334 161.909 196.334 162.198 193.896 161.84L186.767 194.531L178.067 193.849C178.067 193.849 178.986 165.583 182.821 153.896C185.906 144.503 235.253 146.45 235.253 146.45L235.426 149.096C235.767 158.212 231.076 160.43 222.139 161.221Z" fill="#263238"/>
<path opacity="0.1" d="M222.139 161.221C214.334 161.909 196.334 162.198 193.896 161.84L186.767 194.531L178.067 193.849C178.067 193.849 178.986 165.583 182.821 153.896C185.906 144.503 235.253 146.45 235.253 146.45L235.426 149.096C235.767 158.212 231.076 160.43 222.139 161.221Z" fill="black"/>
<path d="M182.683 157.311C182.68 157.259 182.68 157.207 182.683 157.155V157.311Z" fill="#263238"/>
<path d="M183.266 153.088L183.179 153.729C183.196 153.514 183.225 153.3 183.266 153.088Z" fill="#263238"/>
<path d="M210.891 102.014L213.289 105.515L218.679 100.905L215.311 96.7688L210.891 102.014Z" fill="#FAB27B"/>
<path opacity="0.2" d="M212.093 103.672C213.133 102.141 212.671 99.7671 212.671 99.7671L211.723 100.974L210.903 102.014L212.093 103.672Z" fill="black"/>
<path d="M201.671 94.302C201.787 94.6428 202.064 94.8797 202.29 94.7757C202.515 94.6717 202.613 94.3309 202.492 94.0016C202.37 93.6723 202.105 93.4239 201.874 93.5337C201.643 93.6434 201.562 93.9611 201.671 94.302Z" fill="#263238"/>
<path d="M202.919 94.406L202.157 97.6757C202.542 97.7561 202.941 97.7458 203.322 97.6455C203.703 97.5453 204.056 97.3579 204.352 97.098L202.919 94.406Z" fill="#ED893E"/>
<path d="M201.331 91.9162C201.358 91.902 201.389 91.8946 201.42 91.8946C201.451 91.8946 201.482 91.902 201.51 91.9162C201.728 92.008 201.965 92.0464 202.201 92.0283C202.437 92.0102 202.665 91.9361 202.867 91.8122C202.887 91.7969 202.909 91.7857 202.933 91.7794C202.957 91.7731 202.982 91.7718 203.006 91.7756C203.03 91.7794 203.054 91.7882 203.075 91.8014C203.095 91.8147 203.113 91.8321 203.127 91.8527C203.155 91.8945 203.165 91.9453 203.157 91.9947C203.148 92.0441 203.121 92.0884 203.081 92.1184C202.828 92.2871 202.537 92.3897 202.234 92.417C201.932 92.4442 201.627 92.3952 201.348 92.2744C201.324 92.2654 201.303 92.2519 201.284 92.2345C201.266 92.2171 201.251 92.1963 201.241 92.1731C201.231 92.15 201.225 92.1251 201.225 92.0998C201.224 92.0746 201.229 92.0495 201.238 92.026C201.258 91.9813 201.29 91.9432 201.331 91.9162Z" fill="#263238"/>
<path d="M214.479 88.3865C216.212 92.852 217.073 94.7064 215.883 98.005C213.543 101.904 208.153 104.273 205.08 100.449C202.318 96.9825 199.921 90.2986 203.422 86.4685C204.591 85.1564 206.231 84.3594 207.985 84.2512C209.739 84.143 211.465 84.7323 212.786 85.8908C213.542 86.5748 214.123 87.4308 214.479 88.3865Z" fill="#FAB27B"/>
<path d="M218.707 89.7153C218.464 91.2141 218.315 92.7268 218.263 94.2443C218.221 95.6449 217.763 97.0014 216.947 98.1405C216.131 99.2795 214.994 100.15 213.682 100.639C213.682 100.639 207.385 100.564 204.71 92.6441C203.97 92.714 203.224 92.6008 202.539 92.3143C201.853 92.0279 201.248 91.577 200.778 91.0016C200.307 90.4262 199.986 89.7438 199.841 89.0148C199.697 88.2857 199.734 87.5323 199.95 86.821C200.464 85.1342 202.596 84.0828 204.358 84.0192C204.935 83.269 205.688 82.6722 206.55 82.2814C207.413 81.8905 208.358 81.7176 209.303 81.7778C211.208 81.9323 213.049 82.5425 214.669 83.5571C216.132 84.289 217.37 85.4028 218.251 86.7806C218.722 87.682 218.882 88.7135 218.707 89.7153Z" fill="#263238"/>
<path d="M206.021 93.5859C205.822 94.0323 205.713 94.514 205.701 95.0029C205.689 95.4919 205.774 95.9783 205.952 96.4339C206.437 97.6413 207.731 97.4391 208.477 96.4339C209.152 95.5154 209.701 93.7939 208.789 92.9042C207.876 92.0146 206.524 92.4883 206.021 93.5859Z" fill="#FAB27B"/>
<path d="M218.725 98.2996C216.992 98.3747 214.432 99.5474 211.013 101.904C210.834 102.059 210.698 102.258 210.617 102.48C210.536 102.702 210.513 102.942 210.55 103.175C210.591 103.637 211.053 104.071 211.492 103.926C211.717 104.504 211.868 105.139 212.07 105.694C213.139 105.149 214.247 104.686 215.386 104.308C217.11 103.62 218.875 103.041 220.671 102.574C220.192 101.841 219.551 101.124 219.36 100.264C219.562 100.174 219.727 100.016 219.825 99.8178C219.923 99.6194 219.949 99.3929 219.897 99.1776C219.799 98.9393 219.638 98.7319 219.432 98.5774C219.225 98.4228 218.981 98.3268 218.725 98.2996Z" fill="#659365"/>
<path d="M218.725 98.2996C216.992 98.3747 214.432 99.5474 211.013 101.904C210.834 102.059 210.698 102.258 210.617 102.48C210.536 102.702 210.513 102.942 210.55 103.175C210.591 103.637 211.053 104.071 211.492 103.926C211.717 104.504 211.868 105.139 212.07 105.694C213.139 105.149 214.247 104.686 215.386 104.308C217.11 103.62 218.875 103.041 220.671 102.574C220.192 101.841 219.551 101.124 219.36 100.264C219.562 100.174 219.727 100.016 219.825 99.8178C219.923 99.6194 219.949 99.3929 219.897 99.1776C219.799 98.9393 219.638 98.7319 219.432 98.5774C219.225 98.4228 218.981 98.3268 218.725 98.2996Z" fill="#659365"/>
<path d="M213.653 142.55C209.986 133.776 206.867 124.784 204.311 115.624C201.631 105.619 209.285 105.445 218.523 102.961C225.848 100.991 228.979 102.753 231.07 106.468C233.161 110.183 236.535 141.62 236.535 141.62L213.653 142.55Z" fill="#659365"/>
<path d="M213.653 142.55C209.986 133.776 206.867 124.784 204.311 115.624C201.631 105.619 209.285 105.445 218.523 102.961C225.848 100.991 228.979 102.753 231.07 106.468C233.161 110.183 236.535 141.62 236.535 141.62L213.653 142.55Z" fill="#659365"/>
<path opacity="0.3" d="M213.653 142.55C209.986 133.776 206.867 124.784 204.311 115.624C201.631 105.619 209.285 105.445 218.523 102.961C225.848 100.991 228.979 102.753 231.07 106.468C233.161 110.183 236.535 141.62 236.535 141.62L213.653 142.55Z" fill="black"/>
<path d="M180.239 128.131H179.592C179.304 128.143 179.026 128.243 178.797 128.419C178.569 128.595 178.4 128.838 178.315 129.113L178.183 129.541C178.114 129.756 178.099 129.984 178.14 130.205C178.18 130.427 178.274 130.635 178.414 130.812C179.286 131.892 181.412 133.983 184.537 133.429L187.2 132.077L187.374 128.842L182.625 127.276C182.326 127.236 182.023 127.293 181.759 127.438L180.239 128.131Z" fill="#FAB27B"/>
<path d="M187.212 132.1L193.774 132.926L193.393 129.206L187.385 128.865L187.212 132.1Z" fill="#FAB27B"/>
<path d="M191.793 128.946C191.426 129.402 191.222 129.967 191.215 130.552C191.175 131.477 191.387 132.395 191.827 133.209C190.727 133.031 189.601 133.106 188.535 133.429H188.477C185.496 130.512 187.94 128.114 187.94 128.114L188.159 128.184C189.341 128.563 190.558 128.819 191.793 128.946Z" fill="#659365"/>
<path d="M204.571 134.221C198.28 134.544 190.788 133.065 190.788 133.065C190.613 132.604 190.585 132.099 190.707 131.621C190.944 130.616 191.285 129.374 191.764 128.929C192.244 128.484 194.872 128.675 194.872 128.675C194.872 128.675 200.337 127.219 201.429 126.624C202.521 126.029 203.116 122.47 203.347 120.067C204.623 107.242 207.015 106.688 209.124 106.474C213.543 106.035 210.14 133.937 204.571 134.221Z" fill="#659365"/>
<path d="M225.299 207.275L220.937 170.823C220.724 169.041 219.865 167.399 218.522 166.208C217.18 165.016 215.447 164.358 213.653 164.358H199.262C197.518 164.352 195.829 164.97 194.5 166.101C193.172 167.231 192.291 168.799 192.018 170.522L186.149 206.813L184.994 206.628L190.869 170.349C191.184 168.355 192.203 166.54 193.74 165.232C195.278 163.923 197.232 163.208 199.251 163.215H213.664C215.741 163.217 217.746 163.978 219.299 165.357C220.853 166.735 221.849 168.634 222.099 170.696L226.46 207.148L225.299 207.275Z" fill="#263238"/>
<path d="M245.483 207.275L241.122 170.823C240.908 169.041 240.049 167.399 238.707 166.208C237.364 165.016 235.632 164.358 233.837 164.358H219.424C217.679 164.351 215.989 164.968 214.66 166.099C213.332 167.23 212.451 168.799 212.18 170.522L206.304 206.813L205.149 206.628L211.024 170.349C211.339 168.355 212.357 166.539 213.895 165.23C215.432 163.922 217.387 163.207 219.406 163.215H233.82C235.897 163.217 237.901 163.978 239.455 165.357C241.009 166.735 242.004 168.634 242.254 170.696L246.616 207.148L245.483 207.275Z" fill="#263238"/>
<path d="M206.963 196.657H187.119V197.812H206.963V196.657Z" fill="#263238"/>
<path d="M242.052 170.176H221.538V171.331H242.052V170.176Z" fill="#263238"/>
<path d="M225.299 164.607H240.394C243.2 164.607 245.904 163.549 247.965 161.644C250.026 159.739 251.294 157.127 251.514 154.33L253.663 127.213C253.745 126.175 253.612 125.132 253.272 124.148C252.932 123.165 252.393 122.262 251.688 121.496C250.983 120.73 250.128 120.118 249.175 119.698C248.223 119.279 247.194 119.06 246.153 119.056H237.777C233.038 119.056 228.425 120.586 224.625 123.418C220.825 126.25 218.04 130.233 216.686 134.775L210.909 154.133C210.438 155.715 209.469 157.102 208.146 158.088C206.823 159.073 205.216 159.605 203.566 159.604H193.006C191.68 159.605 190.409 160.133 189.472 161.071C188.535 162.009 188.009 163.281 188.009 164.607H225.299Z" fill="#659365"/>
<path opacity="0.7" d="M225.299 164.607H240.394C243.2 164.607 245.904 163.549 247.965 161.644C250.026 159.739 251.294 157.127 251.514 154.33L253.663 127.213C253.745 126.175 253.612 125.132 253.272 124.148C252.932 123.165 252.393 122.262 251.688 121.496C250.983 120.73 250.128 120.118 249.175 119.698C248.223 119.279 247.194 119.06 246.153 119.056H237.777C233.038 119.056 228.425 120.586 224.625 123.418C220.825 126.25 218.04 130.233 216.686 134.775L210.909 154.133C210.438 155.715 209.469 157.102 208.146 158.088C206.823 159.073 205.216 159.605 203.566 159.604H193.006C191.68 159.605 190.409 160.133 189.472 161.071C188.535 162.009 188.009 163.281 188.009 164.607H225.299Z" fill="white"/>
<path d="M210.331 71.0222V70.9578C210.334 70.9792 210.334 71.0008 210.331 71.0222Z" fill="#659365"/>
<path d="M183.128 63.7075C181.15 65.5297 179.703 67.8534 178.939 70.4318H177.882C178.248 67.5296 179.334 64.7651 181.042 62.3904L183.128 63.7075Z" fill="#659365"/>
<path opacity="0.6" d="M183.128 63.7075C181.15 65.5297 179.703 67.8534 178.939 70.4318H177.882C178.248 67.5296 179.334 64.7651 181.042 62.3904L183.128 63.7075Z" fill="white"/>
<path d="M189.251 60.2474C186.963 60.8983 184.863 62.0867 183.128 63.7135L181.042 62.3906C182.744 60.0091 184.985 58.0634 187.582 56.7119L189.251 60.2474Z" fill="#659365"/>
<path opacity="0.5" d="M189.251 60.2474C186.963 60.8983 184.863 62.0867 183.128 63.7135L181.042 62.3906C182.744 60.0091 184.985 58.0634 187.582 56.7119L189.251 60.2474Z" fill="white"/>
<path d="M195.738 54.7651L195.224 59.9239C194.486 59.7952 193.738 59.7314 192.989 59.7333C191.725 59.7343 190.468 59.9073 189.251 60.2474L187.581 56.7235C190.024 55.4439 192.739 54.7721 195.496 54.7651H195.738Z" fill="#659365"/>
<path opacity="0.4" d="M195.738 54.7651L195.224 59.9239C194.486 59.7952 193.738 59.7314 192.989 59.7333C191.725 59.7343 190.468 59.9073 189.251 60.2474L187.581 56.7235C190.024 55.4439 192.739 54.7721 195.496 54.7651H195.738Z" fill="white"/>
<path d="M203.468 56.9546L200.1 61.8938C198.638 60.8886 196.974 60.2162 195.224 59.9239L195.738 54.7651C198.465 54.7845 201.136 55.541 203.468 56.9546Z" fill="#659365"/>
<path opacity="0.3" d="M203.468 56.9546L200.1 61.8938C198.638 60.8886 196.974 60.2162 195.224 59.9239L195.738 54.7651C198.465 54.7845 201.136 55.541 203.468 56.9546Z" fill="white"/>
<path d="M208.812 62.7775L203.555 65.5908C202.681 64.1219 201.498 62.8605 200.089 61.8936L203.456 56.9543C205.749 58.3591 207.603 60.3758 208.812 62.7775Z" fill="#659365"/>
<path opacity="0.2" d="M208.812 62.7775L203.555 65.5908C202.681 64.1219 201.498 62.8605 200.089 61.8936L203.456 56.9543C205.749 58.3591 207.603 60.3758 208.812 62.7775Z" fill="white"/>
<path d="M210.348 70.8075L205.207 70.7497C205.046 68.9288 204.482 67.1665 203.555 65.5909L208.812 62.7776C210.044 65.2648 210.576 68.0409 210.348 70.8075Z" fill="#659365"/>
<path opacity="0.1" d="M210.348 70.8075L205.207 70.7497C205.046 68.9288 204.482 67.1665 203.555 65.5909L208.812 62.7776C210.044 65.2648 210.576 68.0409 210.348 70.8075Z" fill="white"/>
<path d="M210.337 70.9577C210.34 70.9788 210.34 71.0002 210.337 71.0213C210.129 72.8291 209.668 74.5988 208.968 76.2782L204.802 75.3366L205.138 73.748C205.166 73.54 205.195 73.332 205.213 73.1241V72.997C205.279 72.2494 205.279 71.4973 205.213 70.7498L210.354 70.8075C210.354 70.8422 210.354 70.8653 210.354 70.8942C210.352 70.9161 210.346 70.9376 210.337 70.9577Z" fill="#659365"/>
<path d="M178.506 75.9489L178.2 76.0182C178.102 75.6196 178.021 75.2152 177.952 74.8051C177.757 73.5536 177.71 72.2836 177.813 71.0212V70.9577C177.81 70.9366 177.81 70.9152 177.813 70.8941C177.813 70.7381 177.842 70.5764 177.865 70.4204H178.922C178.677 71.258 178.51 72.1167 178.425 72.9854C178.425 72.9854 178.425 73.0258 178.425 73.0489C178.425 73.072 178.425 73.0893 178.425 73.1124C178.387 73.6256 178.377 74.1406 178.396 74.6549C178.419 75.0997 178.454 75.5272 178.506 75.9489Z" fill="#659365"/>
<path opacity="0.7" d="M178.506 75.9489L178.2 76.0182C178.102 75.6196 178.021 75.2152 177.952 74.8051C177.757 73.5536 177.71 72.2836 177.813 71.0212V70.9577C177.81 70.9366 177.81 70.9152 177.813 70.8941C177.813 70.7381 177.842 70.5764 177.865 70.4204H178.922C178.677 71.258 178.51 72.1167 178.425 72.9854C178.425 72.9854 178.425 73.0258 178.425 73.0489C178.425 73.072 178.425 73.0893 178.425 73.1124C178.387 73.6256 178.377 74.1406 178.396 74.6549C178.419 75.0997 178.454 75.5272 178.506 75.9489Z" fill="white"/>
<path d="M210.002 75.0998L209.563 76.1858L208.673 75.9894L200.383 74.1119L196.813 73.3032C197.061 72.9821 197.267 72.6307 197.425 72.2575C197.607 71.8218 197.716 71.3593 197.749 70.8884L205.663 73.6093L210.002 75.0998Z" fill="#263238"/>
<path d="M197.749 70.8999C197.683 71.7797 197.357 72.6201 196.813 73.3147L193.607 72.5868L194.618 69.8254L197.749 70.8999Z" fill="#263238"/>
<path d="M197.749 70.8998C197.683 71.7795 197.357 72.6199 196.813 73.3145C196.415 73.8226 195.915 74.2418 195.346 74.545C193.283 75.6484 190.851 74.9552 189.921 72.9852C189.494 71.9713 189.468 70.8333 189.848 69.8007C190.227 68.7682 190.984 67.9181 191.966 67.4221C194.029 66.3187 196.461 67.0177 197.396 68.9819C197.677 69.5801 197.799 70.2408 197.749 70.8998Z" fill="#659365"/>
<path d="M66.134 68.4564H69.4441V71.2293H65.8047L65.2963 75.2731H62.4079L62.9163 71.2293H59.1786L58.6702 75.2731H55.8396L56.3479 71.2293H53.0146V68.4564H56.6772L57.2087 64.3375H53.8812V61.5646H57.5437L58.0521 57.5208H60.9001L60.3917 61.5646H64.1236L64.632 57.5208H67.48L66.9716 61.5646H70.276V64.3375H66.6135L66.134 68.4564ZM63.2455 68.4564L63.777 64.3375H60.0798L59.5021 68.4564H63.2455Z" fill="#659365"/>
<path d="M78.6698 57.4915V75.2958H74.5509V60.8016H70.9923V57.4915H78.6698Z" fill="#659365"/>
<path d="M63.2339 131.534H34.748V151.146H63.2339V131.534Z" fill="#263238"/>
<path d="M63.2339 131.534H34.748V133.331H63.2339V131.534Z" fill="#659365"/>
<path d="M39.9647 142.383L44.6266 144.965C44.8012 145.05 44.958 145.168 45.0888 145.312C45.1704 145.426 45.2111 145.564 45.2043 145.705C45.2057 145.802 45.1875 145.899 45.1508 145.989C45.1141 146.079 45.0596 146.161 44.9906 146.23C44.9255 146.3 44.8467 146.355 44.7593 146.393C44.6718 146.431 44.5775 146.45 44.4822 146.45C44.2763 146.425 44.0788 146.354 43.9045 146.242L37.8966 142.897C37.8019 142.849 37.7225 142.775 37.6671 142.684C37.6116 142.594 37.5823 142.489 37.5823 142.383C37.5823 142.277 37.6116 142.172 37.6671 142.082C37.7225 141.991 37.8019 141.917 37.8966 141.869L43.9045 138.524C44.0802 138.416 44.2773 138.347 44.4822 138.322C44.6753 138.325 44.8596 138.403 44.9956 138.54C45.1316 138.677 45.2086 138.862 45.2101 139.055C45.2209 139.196 45.1798 139.336 45.0946 139.448C44.966 139.596 44.8088 139.716 44.6324 139.801L39.9647 142.383Z" fill="white"/>
<path d="M51.9516 137.571L47.3301 147.501C47.2604 147.684 47.152 147.85 47.0123 147.987C46.8883 148.087 46.7328 148.14 46.5733 148.137C46.4786 148.137 46.3848 148.118 46.2975 148.081C46.2102 148.044 46.1312 147.991 46.0649 147.923C45.9982 147.863 45.9447 147.79 45.9079 147.709C45.8711 147.627 45.8518 147.539 45.8512 147.449C45.8681 147.247 45.9251 147.051 46.0187 146.872L50.6402 136.947C50.7105 136.766 50.8166 136.601 50.9522 136.462C51.0895 136.356 51.2607 136.303 51.4339 136.314C51.607 136.324 51.7705 136.397 51.8938 136.519C51.9608 136.579 52.0145 136.652 52.0513 136.733C52.0882 136.815 52.1073 136.904 52.1076 136.993C52.0942 137.194 52.0412 137.39 51.9516 137.571Z" fill="white"/>
<path d="M57.769 142.383L53.0898 139.801C52.9109 139.717 52.7515 139.597 52.6218 139.448C52.541 139.334 52.5004 139.196 52.5063 139.055C52.5048 138.959 52.5236 138.864 52.5614 138.775C52.5993 138.686 52.6553 138.607 52.7258 138.541C52.7909 138.472 52.8697 138.416 52.9571 138.379C53.0446 138.341 53.1389 138.321 53.2342 138.322C53.4393 138.346 53.6366 138.415 53.8119 138.524L59.8198 141.869C59.9145 141.917 59.9939 141.991 60.0493 142.082C60.1048 142.172 60.1341 142.277 60.1341 142.383C60.1341 142.489 60.1048 142.594 60.0493 142.684C59.9939 142.775 59.9145 142.849 59.8198 142.897L53.8119 146.242C53.6379 146.355 53.4402 146.426 53.2342 146.45C53.1381 146.45 53.043 146.431 52.9546 146.393C52.8662 146.355 52.7864 146.3 52.72 146.23C52.5828 146.09 52.506 145.901 52.5063 145.705C52.5021 145.565 52.5426 145.427 52.6218 145.312C52.7538 145.167 52.9127 145.049 53.0898 144.965L57.769 142.383Z" fill="white"/>
</svg>
