<svg width="179" height="56" viewBox="0 0 179 56" fill="none" xmlns="http://www.w3.org/2000/svg">
<path d="M27.8482 0C12.4684 0 0 12.5362 0 28.0002C0 43.4648 12.4684 56 27.8482 56C43.2296 56 55.6967 43.4648 55.6967 28.0002C55.6967 12.5372 43.2296 0.00133745 27.8478 0.00133745L27.8482 0ZM40.6192 40.3843C40.1204 41.2068 39.0496 41.4676 38.2315 40.9627C31.6931 36.947 23.4619 36.0376 13.7683 38.2644C12.8342 38.4784 11.9031 37.8899 11.6902 36.9504C11.4764 36.0108 12.0594 35.0746 12.9958 34.8606C23.6039 32.4238 32.7033 33.473 40.0439 37.9836C40.8619 38.4884 41.1213 39.5617 40.6192 40.3843ZM44.0277 32.7602C43.3992 33.7873 42.0624 34.1116 41.0415 33.4797C33.556 28.8535 22.1454 27.5137 13.2914 30.216C12.1432 30.5647 10.9304 29.9141 10.5819 28.7615C10.236 27.607 10.8835 26.3899 12.0298 26.0388C22.1434 22.9533 34.7165 24.4479 43.3128 29.7592C44.3337 30.3912 44.6563 31.735 44.0277 32.7602ZM44.3204 24.8211C35.345 19.4609 20.5369 18.968 11.9676 21.5831C10.5915 22.0027 9.1363 21.2216 8.71929 19.8381C8.30228 18.4538 9.07843 16.9916 10.4555 16.571C20.2925 13.5684 36.6453 14.1485 46.9787 20.3165C48.2191 21.0551 48.6248 22.6624 47.8899 23.9052C47.1583 25.1497 45.5555 25.56 44.3217 24.8211H44.3204ZM75.7657 25.8482C70.9571 24.6953 70.1025 23.8862 70.1025 22.1859C70.1025 20.5797 71.6056 19.4987 73.8436 19.4987C76.0118 19.4987 78.16 20.3195 80.4146 22.0094C80.4812 22.0606 80.5676 22.081 80.6507 22.0676C80.7372 22.0549 80.8104 22.0084 80.8603 21.9385L83.208 18.6109C83.3045 18.4739 83.2778 18.2849 83.1482 18.1803C80.4645 16.016 77.445 14.9637 73.9134 14.9637C68.7224 14.9637 65.0944 18.0964 65.0944 22.5785C65.0944 27.3849 68.2236 29.0868 73.6308 30.4006C78.2298 31.4662 79.008 32.3589 79.008 33.9545C79.008 35.7233 77.4384 36.8233 74.9111 36.8233C72.1044 36.8233 69.8132 35.8704 67.2526 33.6435C67.1894 33.5867 67.1029 33.5633 67.0231 33.5666C66.9367 33.5733 66.8602 33.6134 66.807 33.677L64.1732 36.8267C64.0635 36.9604 64.0768 37.1543 64.2032 37.268C67.1827 39.9429 70.8474 41.3539 74.8046 41.3539C80.398 41.3539 84.0128 38.2811 84.0128 33.5232C84.0227 29.5085 81.6318 27.285 75.7757 25.8526L75.7657 25.8482ZM96.6694 21.0802C94.2451 21.0802 92.2565 22.0405 90.6137 24.0082V21.7934C90.6137 21.6185 90.4741 21.4761 90.3012 21.4761H85.9947C85.8218 21.4761 85.6821 21.6185 85.6821 21.7934V46.4028C85.6821 46.5767 85.8218 46.7204 85.9947 46.7204H90.3012C90.4741 46.7204 90.6137 46.5767 90.6137 46.4028V38.6356C92.2565 40.4846 94.2451 41.3907 96.6694 41.3907C101.175 41.3907 105.738 37.9033 105.738 31.2365C105.744 24.5683 101.182 21.0799 96.6727 21.0799L96.6694 21.0802ZM100.73 31.2365C100.73 34.6299 98.6513 37.0005 95.6717 37.0005C92.7287 37.0005 90.5073 34.5229 90.5073 31.2365C90.5073 27.9497 92.7287 25.4727 95.6717 25.4727C98.6015 25.4724 100.73 27.8962 100.73 31.2365ZM117.427 21.0802C111.624 21.0802 107.078 25.5727 107.078 31.309C107.078 36.9838 111.594 41.4275 117.357 41.4275C123.18 41.4275 127.739 36.9504 127.739 31.2365C127.739 25.5419 123.21 21.0809 117.427 21.0809V21.0802ZM117.427 37.034C114.341 37.034 112.013 34.5396 112.013 31.2348C112.013 27.9149 114.261 25.5058 117.357 25.5058C120.463 25.5058 122.804 27.9992 122.804 31.3073C122.804 34.6266 120.543 37.034 117.427 37.034ZM140.129 21.4761H135.391V16.6058C135.391 16.4312 135.251 16.2888 135.078 16.2888H130.772C130.599 16.2888 130.456 16.4312 130.456 16.6058V21.4761H128.387C128.214 21.4761 128.075 21.6185 128.075 21.7934V25.5138C128.075 25.6884 128.214 25.8312 128.387 25.8312H130.456V35.4591C130.456 39.3478 132.381 41.3205 136.182 41.3205C137.725 41.3205 139.005 40.9995 140.213 40.3107C140.312 40.2572 140.372 40.1502 140.372 40.0365V36.4923C140.372 36.3853 140.316 36.2817 140.223 36.2248C140.129 36.1646 140.013 36.1613 139.917 36.2114C139.089 36.6294 138.287 36.8233 137.389 36.8233C136.009 36.8233 135.391 36.1914 135.391 34.7804V25.8328H140.129C140.302 25.8328 140.442 25.6904 140.442 25.5155V21.7954C140.449 21.6205 140.309 21.4781 140.133 21.4781L140.129 21.4761ZM156.637 21.4951V20.897C156.637 19.1372 157.309 18.3525 158.812 18.3525C159.71 18.3525 160.431 18.5317 161.239 18.8025C161.339 18.834 161.442 18.8182 161.522 18.7584C161.605 18.6985 161.652 18.6026 161.652 18.5009V14.853C161.652 14.7136 161.565 14.5902 161.429 14.5491C160.578 14.294 159.487 14.0322 157.851 14.0322C153.877 14.0322 151.772 16.2838 151.772 20.5412V21.4574H149.703C149.53 21.4574 149.387 21.5998 149.387 21.7743V25.5138C149.387 25.6884 149.53 25.8312 149.703 25.8312H151.772V40.6785C151.772 40.8557 151.915 40.9962 152.088 40.9962H156.391C156.567 40.9962 156.707 40.8557 156.707 40.6785V25.8322H160.727L166.886 40.6785C166.188 42.2366 165.499 42.5476 164.561 42.5476C163.803 42.5476 163.002 42.3202 162.187 41.8688C162.111 41.8287 162.017 41.822 161.938 41.8454C161.855 41.8755 161.785 41.9357 161.751 42.016L160.292 45.2359C160.222 45.3897 160.282 45.5669 160.428 45.6471C161.951 46.4764 163.324 46.8308 165.024 46.8308C168.203 46.8308 169.962 45.3395 171.508 41.3339L178.977 21.9285C179.017 21.8308 179.004 21.7205 178.944 21.6339C178.887 21.548 178.791 21.4962 178.688 21.4962H174.205C174.069 21.4962 173.949 21.5821 173.906 21.7088L169.313 34.8941L164.285 21.7001C164.239 21.5774 164.122 21.4962 163.993 21.4962H156.637V21.4951ZM147.066 21.4761H142.76C142.587 21.4761 142.444 21.6185 142.444 21.7934V40.6785C142.444 40.8557 142.587 40.9962 142.76 40.9962H147.066C147.239 40.9962 147.382 40.8557 147.382 40.6785V21.7947C147.382 21.6199 147.243 21.4774 147.066 21.4774V21.4761ZM144.938 12.8766C143.232 12.8766 141.849 14.2649 141.849 15.9798C141.849 17.6958 143.232 19.0857 144.938 19.0857C146.644 19.0857 148.024 17.6958 148.024 15.9798C148.024 14.2652 146.641 12.8766 144.938 12.8766Z" fill="#C6C6C6"/>
</svg>
