<svg width="24" height="20" viewBox="0 0 24 20" fill="none" xmlns="http://www.w3.org/2000/svg">
<path d="M20.6508 12.3104C20.5356 11.51 19.9176 10.886 19.122 10.7C16.0296 9.97524 15.2544 8.19444 15.1236 6.21924C14.5752 6.11724 13.5996 6.00684 11.9436 6.00684C10.2876 6.00684 9.31204 6.11724 8.76364 6.21924C8.63284 8.19444 7.85764 9.97524 4.76524 10.7C3.96964 10.8872 3.35164 11.51 3.23644 12.3104L2.64004 16.4408C2.43004 17.8952 3.49804 19.2068 4.98364 19.2068H18.9036C20.388 19.2068 21.4572 17.8952 21.2472 16.4408L20.6508 12.3104ZM11.9436 16.1972C10.2696 16.1972 8.91244 14.8532 8.91244 13.1972C8.91244 11.5412 10.2696 10.1972 11.9436 10.1972C13.6176 10.1972 14.9748 11.5412 14.9748 13.1972C14.9748 14.8532 13.6164 16.1972 11.9436 16.1972ZM23.8836 4.80684C23.8548 3.00684 19.2732 0.00803594 11.9436 0.00683594C4.61284 0.00803594 0.0312379 3.00684 0.0036379 4.80684C-0.0239621 6.60684 0.028838 8.94924 3.04564 8.55924C6.57484 8.10204 6.35764 6.86964 6.35764 5.10804C6.35764 3.87924 9.22804 3.58284 11.9436 3.58284C14.6592 3.58284 17.5284 3.87924 17.5296 5.10804C17.5296 6.86964 17.3124 8.10204 20.8416 8.55924C23.8572 8.94924 23.9112 6.60684 23.8836 4.80684Z" fill="white"/>
</svg>
